<?xml version="1.0" encoding="utf-8" standalone="no"?>
<!DOCTYPE svg PUBLIC "-//W3C//DTD SVG 1.1//EN"
  "http://www.w3.org/Graphics/SVG/1.1/DTD/svg11.dtd">
<svg xmlns:xlink="http://www.w3.org/1999/xlink" width="1080pt" height="439.2pt" viewBox="0 0 1080 439.2" xmlns="http://www.w3.org/2000/svg" version="1.1">
 <title>Wanda versus unmasked shared-budget QK-Wanda</title>
 <metadata>
  <rdf:RDF xmlns:dc="http://purl.org/dc/elements/1.1/" xmlns:cc="http://creativecommons.org/ns#" xmlns:rdf="http://www.w3.org/1999/02/22-rdf-syntax-ns#">
   <cc:Work>
    <dc:type rdf:resource="http://purl.org/dc/dcmitype/StillImage"/>
    <dc:title>Wanda versus unmasked shared-budget QK-Wanda</dc:title>
    <dc:date>2026-10-01T03:21:29.905602</dc:date>
    <dc:description>A verified one-head numerical example at 50 percent combined QK sparsity. All graphics and text are vector paths.</dc:description>
    <dc:format>image/svg+xml</dc:format>
    <dc:creator>
     <cc:Agent>
      <dc:title>Original illustration generated from build_figure.py</dc:title>
     </cc:Agent>
    </dc:creator>
   </cc:Work>
  </rdf:RDF>
 </metadata>
 <defs>
  <style type="text/css">*{stroke-linejoin: round; stroke-linecap: butt}</style>
 </defs>
 <g id="figure_1">
  <g id="patch_1">
   <path d="M 0 439.2
L 1080 439.2
L 1080 0
L 0 0
z
" style="fill: #ffffff"/>
  </g>
  <g id="axes_1">
   <g id="patch_2">
    <path d="M 75.6 135.36
L 115.92 135.36
L 115.92 175.68
L 75.6 175.68
z
" clip-path="url(#pe584904efb)" style="fill: #f6f7f8; stroke: #88959f; stroke-width: 0.85; stroke-linejoin: miter"/>
   </g>
   <g id="patch_3">
    <path d="M 115.92 135.36
L 156.24 135.36
L 156.24 175.68
L 115.92 175.68
z
" clip-path="url(#pe584904efb)" style="fill: #f6f7f8; stroke: #88959f; stroke-width: 0.85; stroke-linejoin: miter"/>
   </g>
   <g id="patch_4">
    <path d="M 75.6 175.68
L 115.92 175.68
L 115.92 216
L 75.6 216
z
" clip-path="url(#pe584904efb)" style="fill: #f6f7f8; stroke: #88959f; stroke-width: 0.85; stroke-linejoin: miter"/>
   </g>
   <g id="patch_5">
    <path d="M 115.92 175.68
L 156.24 175.68
L 156.24 216
L 115.92 216
z
" clip-path="url(#pe584904efb)" style="fill: #f6f7f8; stroke: #88959f; stroke-width: 0.85; stroke-linejoin: miter"/>
   </g>
   <g id="patch_6">
    <path d="M 75.6 234.72
L 115.92 234.72
L 115.92 262.08
L 75.6 262.08
z
" clip-path="url(#pe584904efb)" style="fill: #f4af87; stroke: #88959f; stroke-width: 0.85; stroke-linejoin: miter"/>
   </g>
   <g id="patch_7">
    <path d="M 115.92 234.72
L 156.24 234.72
L 156.24 262.08
L 115.92 262.08
z
" clip-path="url(#pe584904efb)" style="fill: #f4af87; stroke: #88959f; stroke-width: 0.85; stroke-linejoin: miter"/>
   </g>
   <g id="patch_8">
    <path d="M 223.2 135.36
L 263.52 135.36
L 263.52 175.68
L 223.2 175.68
z
" clip-path="url(#pe584904efb)" style="fill: #dce8f3; stroke: #88959f; stroke-width: 0.85; stroke-linejoin: miter"/>
   </g>
   <g id="patch_9">
    <path d="M 263.52 135.36
L 303.84 135.36
L 303.84 175.68
L 263.52 175.68
z
" clip-path="url(#pe584904efb)" style="fill: #fff0ca; stroke: #88959f; stroke-width: 0.85; stroke-linejoin: miter"/>
   </g>
   <g id="patch_10">
    <path d="M 223.2 175.68
L 263.52 175.68
L 263.52 216
L 223.2 216
z
" clip-path="url(#pe584904efb)" style="fill: #dce8f3; stroke: #88959f; stroke-width: 0.85; stroke-linejoin: miter"/>
   </g>
   <g id="patch_11">
    <path d="M 263.52 175.68
L 303.84 175.68
L 303.84 216
L 263.52 216
z
" clip-path="url(#pe584904efb)" style="fill: #fff0ca; stroke: #88959f; stroke-width: 0.85; stroke-linejoin: miter"/>
   </g>
   <g id="patch_12">
    <path d="M 363.6 135.36
L 403.92 135.36
L 403.92 175.68
L 363.6 175.68
z
" clip-path="url(#pe584904efb)" style="fill: #dce8f3; stroke: #88959f; stroke-width: 0.85; stroke-linejoin: miter"/>
   </g>
   <g id="patch_13">
    <path d="M 403.92 135.36
L 444.24 135.36
L 444.24 175.68
L 403.92 175.68
z
" clip-path="url(#pe584904efb)" style="fill: #fff0ca; stroke: #88959f; stroke-width: 0.85; stroke-linejoin: miter"/>
   </g>
   <g id="patch_14">
    <path d="M 363.6 175.68
L 403.92 175.68
L 403.92 216
L 363.6 216
z
" clip-path="url(#pe584904efb)" style="fill: #dce8f3; stroke: #88959f; stroke-width: 0.85; stroke-linejoin: miter"/>
   </g>
   <g id="patch_15">
    <path d="M 403.92 175.68
L 444.24 175.68
L 444.24 216
L 403.92 216
z
" clip-path="url(#pe584904efb)" style="fill: #fff0ca; stroke: #88959f; stroke-width: 0.85; stroke-linejoin: miter"/>
   </g>
   <g id="patch_16">
    <path d="M 177.677051 175.68
Q 190.79699 175.68 202.575289 175.68
" clip-path="url(#pe584904efb)" style="fill: none; stroke: #53616c; stroke-width: 1.2; stroke-linecap: round"/>
    <path d="M 197.375289 173.08
L 202.575289 175.68
L 197.375289 178.28
z
" clip-path="url(#pe584904efb)" style="fill: #53616c; stroke: #53616c; stroke-width: 1.2; stroke-linecap: round"/>
   </g>
   <g id="patch_17">
    <path d="M 325.282852 175.68
Q 336.241472 175.68 345.858451 175.68
" clip-path="url(#pe584904efb)" style="fill: none; stroke: #53616c; stroke-width: 1.2; stroke-linecap: round"/>
    <path d="M 340.658451 173.08
L 345.858451 175.68
L 340.658451 178.28
z
" clip-path="url(#pe584904efb)" style="fill: #53616c; stroke: #53616c; stroke-width: 1.2; stroke-linecap: round"/>
   </g>
   <g id="patch_18">
    <path d="M 217.44 141.84
L 309.6 141.84
L 309.6 169.2
L 217.44 169.2
L 217.44 141.84
z
" clip-path="url(#pe584904efb)" style="fill: none; stroke-dasharray: 4.8,3.6; stroke-dashoffset: 0; stroke: #53616c; stroke-width: 1.2; stroke-linejoin: miter"/>
   </g>
   <g id="patch_19">
    <path d="M 217.44 182.16
L 309.6 182.16
L 309.6 209.52
L 217.44 209.52
L 217.44 182.16
z
" clip-path="url(#pe584904efb)" style="fill: none; stroke-dasharray: 4.8,3.6; stroke-dashoffset: 0; stroke: #53616c; stroke-width: 1.2; stroke-linejoin: miter"/>
   </g>
   <g id="patch_20">
    <path d="M 75.6 299.52
L 115.92 299.52
L 115.92 339.84
L 75.6 339.84
z
" clip-path="url(#pe584904efb)" style="fill: #f6f7f8; stroke: #88959f; stroke-width: 0.85; stroke-linejoin: miter"/>
   </g>
   <g id="patch_21">
    <path d="M 115.92 299.52
L 156.24 299.52
L 156.24 339.84
L 115.92 339.84
z
" clip-path="url(#pe584904efb)" style="fill: #f6f7f8; stroke: #88959f; stroke-width: 0.85; stroke-linejoin: miter"/>
   </g>
   <g id="patch_22">
    <path d="M 75.6 339.84
L 115.92 339.84
L 115.92 380.16
L 75.6 380.16
z
" clip-path="url(#pe584904efb)" style="fill: #f6f7f8; stroke: #88959f; stroke-width: 0.85; stroke-linejoin: miter"/>
   </g>
   <g id="patch_23">
    <path d="M 115.92 339.84
L 156.24 339.84
L 156.24 380.16
L 115.92 380.16
z
" clip-path="url(#pe584904efb)" style="fill: #f6f7f8; stroke: #88959f; stroke-width: 0.85; stroke-linejoin: miter"/>
   </g>
   <g id="patch_24">
    <path d="M 75.6 398.88
L 115.92 398.88
L 115.92 426.24
L 75.6 426.24
z
" clip-path="url(#pe584904efb)" style="fill: #f4af87; stroke: #88959f; stroke-width: 0.85; stroke-linejoin: miter"/>
   </g>
   <g id="patch_25">
    <path d="M 115.92 398.88
L 156.24 398.88
L 156.24 426.24
L 115.92 426.24
z
" clip-path="url(#pe584904efb)" style="fill: #f4af87; stroke: #88959f; stroke-width: 0.85; stroke-linejoin: miter"/>
   </g>
   <g id="patch_26">
    <path d="M 223.2 299.52
L 263.52 299.52
L 263.52 339.84
L 223.2 339.84
z
" clip-path="url(#pe584904efb)" style="fill: #dce8f3; stroke: #88959f; stroke-width: 0.85; stroke-linejoin: miter"/>
   </g>
   <g id="patch_27">
    <path d="M 263.52 299.52
L 303.84 299.52
L 303.84 339.84
L 263.52 339.84
z
" clip-path="url(#pe584904efb)" style="fill: #fff0ca; stroke: #88959f; stroke-width: 0.85; stroke-linejoin: miter"/>
   </g>
   <g id="patch_28">
    <path d="M 223.2 339.84
L 263.52 339.84
L 263.52 380.16
L 223.2 380.16
z
" clip-path="url(#pe584904efb)" style="fill: #fff0ca; stroke: #88959f; stroke-width: 0.85; stroke-linejoin: miter"/>
   </g>
   <g id="patch_29">
    <path d="M 263.52 339.84
L 303.84 339.84
L 303.84 380.16
L 263.52 380.16
z
" clip-path="url(#pe584904efb)" style="fill: #dce8f3; stroke: #88959f; stroke-width: 0.85; stroke-linejoin: miter"/>
   </g>
   <g id="patch_30">
    <path d="M 363.6 299.52
L 403.92 299.52
L 403.92 339.84
L 363.6 339.84
z
" clip-path="url(#pe584904efb)" style="fill: #dce8f3; stroke: #88959f; stroke-width: 0.85; stroke-linejoin: miter"/>
   </g>
   <g id="patch_31">
    <path d="M 403.92 299.52
L 444.24 299.52
L 444.24 339.84
L 403.92 339.84
z
" clip-path="url(#pe584904efb)" style="fill: #fff0ca; stroke: #88959f; stroke-width: 0.85; stroke-linejoin: miter"/>
   </g>
   <g id="patch_32">
    <path d="M 363.6 339.84
L 403.92 339.84
L 403.92 380.16
L 363.6 380.16
z
" clip-path="url(#pe584904efb)" style="fill: #fff0ca; stroke: #88959f; stroke-width: 0.85; stroke-linejoin: miter"/>
   </g>
   <g id="patch_33">
    <path d="M 403.92 339.84
L 444.24 339.84
L 444.24 380.16
L 403.92 380.16
z
" clip-path="url(#pe584904efb)" style="fill: #dce8f3; stroke: #88959f; stroke-width: 0.85; stroke-linejoin: miter"/>
   </g>
   <g id="patch_34">
    <path d="M 177.677051 339.84
Q 190.79699 339.84 202.575289 339.84
" clip-path="url(#pe584904efb)" style="fill: none; stroke: #53616c; stroke-width: 1.2; stroke-linecap: round"/>
    <path d="M 197.375289 337.24
L 202.575289 339.84
L 197.375289 342.44
z
" clip-path="url(#pe584904efb)" style="fill: #53616c; stroke: #53616c; stroke-width: 1.2; stroke-linecap: round"/>
   </g>
   <g id="patch_35">
    <path d="M 325.282852 339.84
Q 336.241472 339.84 345.858451 339.84
" clip-path="url(#pe584904efb)" style="fill: none; stroke: #53616c; stroke-width: 1.2; stroke-linecap: round"/>
    <path d="M 340.658451 337.24
L 345.858451 339.84
L 340.658451 342.44
z
" clip-path="url(#pe584904efb)" style="fill: #53616c; stroke: #53616c; stroke-width: 1.2; stroke-linecap: round"/>
   </g>
   <g id="patch_36">
    <path d="M 217.44 306
L 309.6 306
L 309.6 333.36
L 217.44 333.36
L 217.44 306
z
" clip-path="url(#pe584904efb)" style="fill: none; stroke-dasharray: 4.8,3.6; stroke-dashoffset: 0; stroke: #53616c; stroke-width: 1.2; stroke-linejoin: miter"/>
   </g>
   <g id="patch_37">
    <path d="M 217.44 346.32
L 309.6 346.32
L 309.6 373.68
L 217.44 373.68
L 217.44 346.32
z
" clip-path="url(#pe584904efb)" style="fill: none; stroke-dasharray: 4.8,3.6; stroke-dashoffset: 0; stroke: #53616c; stroke-width: 1.2; stroke-linejoin: miter"/>
   </g>
   <g id="patch_38">
    <path d="M 579.6 135.36
L 619.92 135.36
L 619.92 175.68
L 579.6 175.68
z
" clip-path="url(#pe584904efb)" style="fill: #f6f7f8; stroke: #88959f; stroke-width: 0.85; stroke-linejoin: miter"/>
   </g>
   <g id="patch_39">
    <path d="M 619.92 135.36
L 660.24 135.36
L 660.24 175.68
L 619.92 175.68
z
" clip-path="url(#pe584904efb)" style="fill: #f6f7f8; stroke: #88959f; stroke-width: 0.85; stroke-linejoin: miter"/>
   </g>
   <g id="patch_40">
    <path d="M 579.6 175.68
L 619.92 175.68
L 619.92 216
L 579.6 216
z
" clip-path="url(#pe584904efb)" style="fill: #f6f7f8; stroke: #88959f; stroke-width: 0.85; stroke-linejoin: miter"/>
   </g>
   <g id="patch_41">
    <path d="M 619.92 175.68
L 660.24 175.68
L 660.24 216
L 619.92 216
z
" clip-path="url(#pe584904efb)" style="fill: #f6f7f8; stroke: #88959f; stroke-width: 0.85; stroke-linejoin: miter"/>
   </g>
   <g id="patch_42">
    <path d="M 579.6 234.72
L 619.92 234.72
L 619.92 262.08
L 579.6 262.08
z
" clip-path="url(#pe584904efb)" style="fill: #f4af87; stroke: #88959f; stroke-width: 0.85; stroke-linejoin: miter"/>
   </g>
   <g id="patch_43">
    <path d="M 619.92 234.72
L 660.24 234.72
L 660.24 262.08
L 619.92 262.08
z
" clip-path="url(#pe584904efb)" style="fill: #f4af87; stroke: #88959f; stroke-width: 0.85; stroke-linejoin: miter"/>
   </g>
   <g id="patch_44">
    <path d="M 694.08 135.36
L 725.76 135.36
L 725.76 175.68
L 694.08 175.68
z
" clip-path="url(#pe584904efb)" style="fill: #c4e7dc; stroke: #88959f; stroke-width: 0.85; stroke-linejoin: miter"/>
   </g>
   <g id="patch_45">
    <path d="M 694.08 175.68
L 725.76 175.68
L 725.76 216
L 694.08 216
z
" clip-path="url(#pe584904efb)" style="fill: #c4e7dc; stroke: #88959f; stroke-width: 0.85; stroke-linejoin: miter"/>
   </g>
   <g id="patch_46">
    <path d="M 789.12 135.36
L 829.44 135.36
L 829.44 175.68
L 789.12 175.68
z
" clip-path="url(#pe584904efb)" style="fill: #dce8f3; stroke: #88959f; stroke-width: 0.85; stroke-linejoin: miter"/>
   </g>
   <g id="patch_47">
    <path d="M 829.44 135.36
L 869.76 135.36
L 869.76 175.68
L 829.44 175.68
z
" clip-path="url(#pe584904efb)" style="fill: #fff0ca; stroke: #88959f; stroke-width: 0.85; stroke-linejoin: miter"/>
   </g>
   <g id="patch_48">
    <path d="M 789.12 175.68
L 829.44 175.68
L 829.44 216
L 789.12 216
z
" clip-path="url(#pe584904efb)" style="fill: #dce8f3; stroke: #88959f; stroke-width: 0.85; stroke-linejoin: miter"/>
   </g>
   <g id="patch_49">
    <path d="M 829.44 175.68
L 869.76 175.68
L 869.76 216
L 829.44 216
z
" clip-path="url(#pe584904efb)" style="fill: #dce8f3; stroke: #88959f; stroke-width: 0.85; stroke-linejoin: miter"/>
   </g>
   <g id="patch_50">
    <path d="M 947.52 135.36
L 987.84 135.36
L 987.84 175.68
L 947.52 175.68
z
" clip-path="url(#pe584904efb)" style="fill: #dce8f3; stroke: #88959f; stroke-width: 0.85; stroke-linejoin: miter"/>
   </g>
   <g id="patch_51">
    <path d="M 987.84 135.36
L 1028.16 135.36
L 1028.16 175.68
L 987.84 175.68
z
" clip-path="url(#pe584904efb)" style="fill: #fff0ca; stroke: #88959f; stroke-width: 0.85; stroke-linejoin: miter"/>
   </g>
   <g id="patch_52">
    <path d="M 947.52 175.68
L 987.84 175.68
L 987.84 216
L 947.52 216
z
" clip-path="url(#pe584904efb)" style="fill: #dce8f3; stroke: #88959f; stroke-width: 0.85; stroke-linejoin: miter"/>
   </g>
   <g id="patch_53">
    <path d="M 987.84 175.68
L 1028.16 175.68
L 1028.16 216
L 987.84 216
z
" clip-path="url(#pe584904efb)" style="fill: #dce8f3; stroke: #88959f; stroke-width: 0.85; stroke-linejoin: miter"/>
   </g>
   <g id="patch_54">
    <path d="M 739.283906 175.68
Q 754.562459 175.68 768.499371 175.68
" clip-path="url(#pe584904efb)" style="fill: none; stroke: #53616c; stroke-width: 1.2; stroke-linecap: round"/>
    <path d="M 763.299371 173.08
L 768.499371 175.68
L 763.299371 178.28
z
" clip-path="url(#pe584904efb)" style="fill: #53616c; stroke: #53616c; stroke-width: 1.2; stroke-linecap: round"/>
   </g>
   <g id="patch_55">
    <path d="M 891.202456 175.68
Q 911.162156 175.68 929.780215 175.68
" clip-path="url(#pe584904efb)" style="fill: none; stroke: #53616c; stroke-width: 1.2; stroke-linecap: round"/>
    <path d="M 924.580215 173.08
L 929.780215 175.68
L 924.580215 178.28
z
" clip-path="url(#pe584904efb)" style="fill: #53616c; stroke: #53616c; stroke-width: 1.2; stroke-linecap: round"/>
   </g>
   <g id="patch_56">
    <path d="M 579.6 299.52
L 619.92 299.52
L 619.92 339.84
L 579.6 339.84
z
" clip-path="url(#pe584904efb)" style="fill: #f6f7f8; stroke: #88959f; stroke-width: 0.85; stroke-linejoin: miter"/>
   </g>
   <g id="patch_57">
    <path d="M 619.92 299.52
L 660.24 299.52
L 660.24 339.84
L 619.92 339.84
z
" clip-path="url(#pe584904efb)" style="fill: #f6f7f8; stroke: #88959f; stroke-width: 0.85; stroke-linejoin: miter"/>
   </g>
   <g id="patch_58">
    <path d="M 579.6 339.84
L 619.92 339.84
L 619.92 380.16
L 579.6 380.16
z
" clip-path="url(#pe584904efb)" style="fill: #f6f7f8; stroke: #88959f; stroke-width: 0.85; stroke-linejoin: miter"/>
   </g>
   <g id="patch_59">
    <path d="M 619.92 339.84
L 660.24 339.84
L 660.24 380.16
L 619.92 380.16
z
" clip-path="url(#pe584904efb)" style="fill: #f6f7f8; stroke: #88959f; stroke-width: 0.85; stroke-linejoin: miter"/>
   </g>
   <g id="patch_60">
    <path d="M 579.6 398.88
L 619.92 398.88
L 619.92 426.24
L 579.6 426.24
z
" clip-path="url(#pe584904efb)" style="fill: #f4af87; stroke: #88959f; stroke-width: 0.85; stroke-linejoin: miter"/>
   </g>
   <g id="patch_61">
    <path d="M 619.92 398.88
L 660.24 398.88
L 660.24 426.24
L 619.92 426.24
z
" clip-path="url(#pe584904efb)" style="fill: #f4af87; stroke: #88959f; stroke-width: 0.85; stroke-linejoin: miter"/>
   </g>
   <g id="patch_62">
    <path d="M 694.08 299.52
L 725.76 299.52
L 725.76 339.84
L 694.08 339.84
z
" clip-path="url(#pe584904efb)" style="fill: #c4e7dc; stroke: #88959f; stroke-width: 0.85; stroke-linejoin: miter"/>
   </g>
   <g id="patch_63">
    <path d="M 694.08 339.84
L 725.76 339.84
L 725.76 380.16
L 694.08 380.16
z
" clip-path="url(#pe584904efb)" style="fill: #c4e7dc; stroke: #88959f; stroke-width: 0.85; stroke-linejoin: miter"/>
   </g>
   <g id="patch_64">
    <path d="M 789.12 299.52
L 829.44 299.52
L 829.44 339.84
L 789.12 339.84
z
" clip-path="url(#pe584904efb)" style="fill: #dce8f3; stroke: #88959f; stroke-width: 0.85; stroke-linejoin: miter"/>
   </g>
   <g id="patch_65">
    <path d="M 829.44 299.52
L 869.76 299.52
L 869.76 339.84
L 829.44 339.84
z
" clip-path="url(#pe584904efb)" style="fill: #fff0ca; stroke: #88959f; stroke-width: 0.85; stroke-linejoin: miter"/>
   </g>
   <g id="patch_66">
    <path d="M 789.12 339.84
L 829.44 339.84
L 829.44 380.16
L 789.12 380.16
z
" clip-path="url(#pe584904efb)" style="fill: #fff0ca; stroke: #88959f; stroke-width: 0.85; stroke-linejoin: miter"/>
   </g>
   <g id="patch_67">
    <path d="M 829.44 339.84
L 869.76 339.84
L 869.76 380.16
L 829.44 380.16
z
" clip-path="url(#pe584904efb)" style="fill: #fff0ca; stroke: #88959f; stroke-width: 0.85; stroke-linejoin: miter"/>
   </g>
   <g id="patch_68">
    <path d="M 947.52 299.52
L 987.84 299.52
L 987.84 339.84
L 947.52 339.84
z
" clip-path="url(#pe584904efb)" style="fill: #dce8f3; stroke: #88959f; stroke-width: 0.85; stroke-linejoin: miter"/>
   </g>
   <g id="patch_69">
    <path d="M 987.84 299.52
L 1028.16 299.52
L 1028.16 339.84
L 987.84 339.84
z
" clip-path="url(#pe584904efb)" style="fill: #fff0ca; stroke: #88959f; stroke-width: 0.85; stroke-linejoin: miter"/>
   </g>
   <g id="patch_70">
    <path d="M 947.52 339.84
L 987.84 339.84
L 987.84 380.16
L 947.52 380.16
z
" clip-path="url(#pe584904efb)" style="fill: #fff0ca; stroke: #88959f; stroke-width: 0.85; stroke-linejoin: miter"/>
   </g>
   <g id="patch_71">
    <path d="M 987.84 339.84
L 1028.16 339.84
L 1028.16 380.16
L 987.84 380.16
z
" clip-path="url(#pe584904efb)" style="fill: #fff0ca; stroke: #88959f; stroke-width: 0.85; stroke-linejoin: miter"/>
   </g>
   <g id="patch_72">
    <path d="M 739.283906 339.84
Q 754.562459 339.84 768.499371 339.84
" clip-path="url(#pe584904efb)" style="fill: none; stroke: #53616c; stroke-width: 1.2; stroke-linecap: round"/>
    <path d="M 763.299371 337.24
L 768.499371 339.84
L 763.299371 342.44
z
" clip-path="url(#pe584904efb)" style="fill: #53616c; stroke: #53616c; stroke-width: 1.2; stroke-linecap: round"/>
   </g>
   <g id="patch_73">
    <path d="M 891.202456 339.84
Q 911.162156 339.84 929.780215 339.84
" clip-path="url(#pe584904efb)" style="fill: none; stroke: #53616c; stroke-width: 1.2; stroke-linecap: round"/>
    <path d="M 924.580215 337.24
L 929.780215 339.84
L 924.580215 342.44
z
" clip-path="url(#pe584904efb)" style="fill: #53616c; stroke: #53616c; stroke-width: 1.2; stroke-linecap: round"/>
   </g>
   <g id="patch_74">
    <path d="M 780.48 126.72
L 878.4 126.72
L 878.4 388.8
L 780.48 388.8
L 780.48 126.72
z
" clip-path="url(#pe584904efb)" style="fill: none; stroke-dasharray: 7.5,4.5; stroke-dashoffset: 0; stroke: #16756f; stroke-width: 1.5; stroke-linejoin: miter"/>
   </g>
   <g id="line2d_1">
    <path d="M 504 8.64
L 504 432
" clip-path="url(#pe584904efb)" style="fill: none; stroke: #d6dce0; stroke-width: 0.9; stroke-linecap: square"/>
   </g>
   <g id="text_1">
    <!-- Wanda -->
    <g style="fill: #9f3518" transform="translate(61.627187 54.694375) scale(0.26 -0.26)">
     <defs>
      <path id="DejaVuSans-Bold-57" d="M 191 4666
L 1344 4666
L 2150 1275
L 2950 4666
L 4109 4666
L 4909 1275
L 5716 4666
L 6859 4666
L 5759 0
L 4372 0
L 3525 3547
L 2688 0
L 1300 0
L 191 4666
z
" transform="scale(0.015625)"/>
      <path id="DejaVuSans-Bold-61" d="M 2106 1575
Q 1756 1575 1579 1456
Q 1403 1338 1403 1106
Q 1403 894 1545 773
Q 1688 653 1941 653
Q 2256 653 2472 879
Q 2688 1106 2688 1447
L 2688 1575
L 2106 1575
z
M 3816 1997
L 3816 0
L 2688 0
L 2688 519
Q 2463 200 2181 54
Q 1900 -91 1497 -91
Q 953 -91 614 226
Q 275 544 275 1050
Q 275 1666 698 1953
Q 1122 2241 2028 2241
L 2688 2241
L 2688 2328
Q 2688 2594 2478 2717
Q 2269 2841 1825 2841
Q 1466 2841 1156 2769
Q 847 2697 581 2553
L 581 3406
Q 941 3494 1303 3539
Q 1666 3584 2028 3584
Q 2975 3584 3395 3211
Q 3816 2838 3816 1997
z
" transform="scale(0.015625)"/>
      <path id="DejaVuSans-Bold-6e" d="M 4056 2131
L 4056 0
L 2931 0
L 2931 347
L 2931 1631
Q 2931 2084 2911 2256
Q 2891 2428 2841 2509
Q 2775 2619 2662 2680
Q 2550 2741 2406 2741
Q 2056 2741 1856 2470
Q 1656 2200 1656 1722
L 1656 0
L 538 0
L 538 3500
L 1656 3500
L 1656 2988
Q 1909 3294 2193 3439
Q 2478 3584 2822 3584
Q 3428 3584 3742 3212
Q 4056 2841 4056 2131
z
" transform="scale(0.015625)"/>
      <path id="DejaVuSans-Bold-64" d="M 2919 2988
L 2919 4863
L 4044 4863
L 4044 0
L 2919 0
L 2919 506
Q 2688 197 2409 53
Q 2131 -91 1766 -91
Q 1119 -91 703 423
Q 288 938 288 1747
Q 288 2556 703 3070
Q 1119 3584 1766 3584
Q 2128 3584 2408 3439
Q 2688 3294 2919 2988
z
M 2181 722
Q 2541 722 2730 984
Q 2919 1247 2919 1747
Q 2919 2247 2730 2509
Q 2541 2772 2181 2772
Q 1825 2772 1636 2509
Q 1447 2247 1447 1747
Q 1447 1247 1636 984
Q 1825 722 2181 722
z
" transform="scale(0.015625)"/>
     </defs>
     <use xlink:href="#DejaVuSans-Bold-57"/>
     <use xlink:href="#DejaVuSans-Bold-61" transform="translate(106.677734 0)"/>
     <use xlink:href="#DejaVuSans-Bold-6e" transform="translate(174.158203 0)"/>
     <use xlink:href="#DejaVuSans-Bold-64" transform="translate(245.349609 0)"/>
     <use xlink:href="#DejaVuSans-Bold-61" transform="translate(316.931641 0)"/>
    </g>
   </g>
   <g id="text_2">
    <!-- QK- -->
    <g style="fill: #176b62" transform="translate(561.69 54.694375) scale(0.26 -0.26)">
     <defs>
      <path id="DejaVuSans-Bold-51" d="M 2847 -84
L 2753 -84
Q 1600 -84 959 553
Q 319 1191 319 2328
Q 319 3463 958 4106
Q 1597 4750 2719 4750
Q 3853 4750 4486 4112
Q 5119 3475 5119 2328
Q 5119 1541 4783 972
Q 4447 403 3816 116
L 4756 -934
L 3609 -934
L 2847 -84
z
M 2719 3878
Q 2169 3878 1866 3472
Q 1563 3066 1563 2328
Q 1563 1578 1859 1179
Q 2156 781 2719 781
Q 3272 781 3575 1187
Q 3878 1594 3878 2328
Q 3878 3066 3575 3472
Q 3272 3878 2719 3878
z
" transform="scale(0.015625)"/>
      <path id="DejaVuSans-Bold-4b" d="M 588 4666
L 1791 4666
L 1791 2963
L 3525 4666
L 4922 4666
L 2675 2456
L 5153 0
L 3647 0
L 1791 1838
L 1791 0
L 588 0
L 588 4666
z
" transform="scale(0.015625)"/>
      <path id="DejaVuSans-Bold-2d" d="M 347 2297
L 2309 2297
L 2309 1388
L 347 1388
L 347 2297
z
" transform="scale(0.015625)"/>
     </defs>
     <use xlink:href="#DejaVuSans-Bold-51"/>
     <use xlink:href="#DejaVuSans-Bold-4b" transform="translate(85.009766 0)"/>
     <use xlink:href="#DejaVuSans-Bold-2d" transform="translate(153.75 0)"/>
    </g>
   </g>
   <g id="text_3">
    <!-- Wanda -->
    <g style="fill: #9f3518" transform="translate(612.63 54.694375) scale(0.26 -0.26)">
     <use xlink:href="#DejaVuSans-Bold-57"/>
     <use xlink:href="#DejaVuSans-Bold-61" transform="translate(106.677734 0)"/>
     <use xlink:href="#DejaVuSans-Bold-6e" transform="translate(174.158203 0)"/>
     <use xlink:href="#DejaVuSans-Bold-64" transform="translate(245.349609 0)"/>
     <use xlink:href="#DejaVuSans-Bold-61" transform="translate(316.931641 0)"/>
    </g>
   </g>
   <g id="text_4">
    <!-- $\sqrt{S^{W,Q}_{ij}}=\lvert W^Q_{ij}\rvert$ -->
    <g style="fill: #17232e" transform="translate(245.307975 32.4) scale(0.2 -0.2)">
     <defs>
      <path id="CMEX10-71" d="M 2970 -10304
L 1594 -5504
L 704 -6547
L 806 -6643
L 1242 -6131
L 2714 -11264
C 2925 -11264 2931 -11264 2982 -11110
L 6496 0
C 6528 96 6528 122 6528 128
C 6528 198 6477 256 6400 256
C 6304 256 6278 173 6253 90
L 2970 -10304
z
" transform="scale(0.015625)"/>
      <path id="CMMI12-53" d="M 4064 4423
C 4064 4480 4019 4480 4006 4480
C 3981 4480 3974 4474 3898 4378
C 3859 4333 3597 4001 3590 3995
C 3379 4410 2957 4480 2688 4480
C 1875 4480 1139 3743 1139 3025
C 1139 2549 1427 2269 1741 2161
C 1811 2135 2189 2033 2381 1989
C 2707 1900 2790 1875 2925 1735
C 2950 1703 3078 1557 3078 1258
C 3078 667 2528 57 1888 57
C 1363 57 781 280 781 991
C 781 1112 806 1265 826 1328
C 826 1348 832 1378 832 1391
C 832 1417 819 1449 768 1449
C 710 1449 704 1436 678 1328
L 352 24
C 352 18 326 -64 326 -71
C 326 -128 378 -128 390 -128
C 416 -128 422 -122 499 -26
L 794 356
C 947 126 1280 -128 1875 -128
C 2701 -128 3456 666 3456 1460
C 3456 1728 3392 1963 3149 2197
C 3014 2331 2899 2363 2310 2516
C 1882 2630 1824 2649 1709 2751
C 1600 2858 1517 3011 1517 3227
C 1517 3761 2061 4308 2669 4308
C 3296 4308 3590 3926 3590 3323
C 3590 3158 3558 2986 3558 2961
C 3558 2903 3610 2903 3629 2903
C 3686 2903 3693 2922 3718 3024
L 4064 4423
z
" transform="scale(0.015625)"/>
      <path id="CMMI12-57" d="M 5779 3646
C 5926 3894 6067 4129 6451 4168
C 6509 4174 6566 4180 6566 4282
C 6566 4352 6509 4352 6490 4352
C 6477 4352 6432 4352 6010 4352
C 5818 4352 5619 4352 5434 4352
C 5395 4352 5318 4352 5318 4226
C 5318 4166 5370 4160 5408 4160
C 5536 4160 5741 4122 5741 3925
C 5741 3842 5715 3797 5651 3690
L 3904 648
L 3674 3963
C 3674 4039 3744 4160 4102 4160
C 4186 4160 4250 4160 4250 4286
C 4250 4352 4186 4352 4154 4352
C 3930 4352 3693 4352 3462 4352
L 3130 4352
C 3034 4352 2918 4352 2822 4352
C 2784 4352 2707 4352 2707 4226
C 2707 4160 2752 4160 2861 4160
C 3155 4160 3155 4153 3181 3772
L 3200 3543
L 1542 648
L 1306 3931
C 1306 4002 1306 4160 1741 4160
C 1811 4160 1882 4160 1882 4279
C 1882 4352 1824 4352 1786 4352
C 1562 4352 1325 4352 1094 4352
L 762 4352
C 666 4352 550 4352 454 4352
C 416 4352 339 4352 339 4226
C 339 4160 390 4160 480 4160
C 781 4160 787 4121 800 3918
L 1082 18
C 1088 -90 1094 -128 1171 -128
C 1235 -128 1248 -103 1306 -7
L 3213 3307
L 3450 18
C 3456 -90 3462 -128 3539 -128
C 3603 -128 3622 -96 3674 -7
L 5779 3646
z
" transform="scale(0.015625)"/>
      <path id="CMMI12-3b" d="M 1248 -31
C 1248 343 1126 619 864 619
C 659 619 557 453 557 313
C 557 172 653 0 870 0
C 954 0 1024 26 1082 83
C 1094 96 1101 96 1107 96
C 1120 96 1120 5 1120 -27
C 1120 -240 1082 -659 710 -1080
C 640 -1157 640 -1170 640 -1183
C 640 -1216 672 -1248 704 -1248
C 755 -1248 1248 -771 1248 -31
z
" transform="scale(0.015625)"/>
      <path id="CMMI12-51" d="M 2726 45
C 3827 490 4646 1663 4646 2829
C 4646 3893 3955 4544 3059 4544
C 1690 4544 307 3062 307 1573
C 307 561 973 -128 1901 -128
C 2118 -128 2330 -96 2534 -33
C 2496 -411 2496 -442 2496 -562
C 2496 -744 2496 -1216 3008 -1216
C 3770 -1216 4051 -37 4051 2
C 4051 39 4026 64 3994 64
C 3955 64 3942 34 3923 -36
C 3782 -429 3450 -654 3168 -654
C 2842 -654 2758 -435 2726 45
z
M 1574 77
C 1069 252 826 787 826 1379
C 826 1831 992 2689 1414 3340
C 1888 4075 2522 4404 3021 4404
C 3686 4404 4134 3862 4134 3024
C 4134 2547 3910 948 2707 240
C 2675 571 2586 960 2163 960
C 1818 960 1523 609 1523 291
C 1523 220 1549 123 1574 77
z
M 2547 156
C 2317 52 2118 12 1939 12
C 1875 12 1651 12 1651 298
C 1651 533 1875 832 2163 832
C 2483 832 2554 611 2554 286
C 2554 246 2554 194 2547 156
z
" transform="scale(0.015625)"/>
      <path id="CMMI12-69" d="M 1811 913
C 1811 945 1786 971 1747 971
C 1690 971 1683 952 1651 843
C 1485 262 1222 64 1011 64
C 934 64 845 83 845 275
C 845 447 922 639 992 830
L 1440 2018
C 1459 2069 1504 2184 1504 2305
C 1504 2574 1312 2816 998 2816
C 410 2816 173 1890 173 1839
C 173 1814 198 1782 243 1782
C 301 1782 307 1807 333 1896
C 486 2428 730 2682 979 2682
C 1037 2682 1146 2682 1146 2478
C 1146 2312 1062 2101 1011 1961
L 563 773
C 525 671 486 568 486 453
C 486 166 685 -64 992 -64
C 1581 -64 1811 869 1811 913
z
M 1760 4013
C 1760 4109 1683 4224 1542 4224
C 1395 4224 1229 4083 1229 3917
C 1229 3758 1363 3707 1440 3707
C 1613 3707 1760 3873 1760 4013
z
" transform="scale(0.015625)"/>
      <path id="CMMI12-6a" d="M 2240 2028
C 2266 2131 2266 2219 2266 2245
C 2266 2613 1990 2816 1702 2816
C 1056 2816 710 1889 710 1845
C 710 1813 736 1788 774 1788
C 826 1788 832 1813 864 1876
C 1120 2492 1440 2689 1683 2689
C 1818 2689 1888 2618 1888 2397
C 1888 2245 1869 2181 1843 2067
L 1235 -327
C 1114 -796 813 -1152 461 -1152
C 435 -1152 301 -1152 179 -1088
C 333 -1056 454 -936 454 -784
C 454 -682 378 -580 237 -580
C 70 -580 -83 -720 -83 -911
C -83 -1171 198 -1280 461 -1280
C 902 -1280 1485 -956 1645 -320
L 2240 2028
z
M 2502 4013
C 2502 4173 2368 4224 2291 4224
C 2118 4224 1971 4058 1971 3917
C 1971 3822 2048 3707 2189 3707
C 2336 3707 2502 3847 2502 4013
z
" transform="scale(0.015625)"/>
      <path id="CMR17-3d" d="M 4115 2017
C 4211 2017 4307 2017 4307 2125
C 4307 2240 4198 2240 4090 2240
L 512 2240
C 403 2240 294 2240 294 2125
C 294 2017 390 2017 486 2017
L 4115 2017
z
M 4090 896
C 4198 896 4307 896 4307 1011
C 4307 1119 4211 1119 4115 1119
L 486 1119
C 390 1119 294 1119 294 1011
C 294 896 403 896 512 896
L 4090 896
z
" transform="scale(0.015625)"/>
      <path id="CMSY10-6a" d="M 1018 4570
C 1018 4685 1018 4800 890 4800
C 762 4800 762 4685 762 4570
L 762 -1370
C 762 -1485 762 -1600 890 -1600
C 1018 -1600 1018 -1485 1018 -1370
L 1018 4570
z
" transform="scale(0.015625)"/>
     </defs>
     <use xlink:href="#CMEX10-71" transform="translate(0 117.475999) scale(0.996264)"/>
     <use xlink:href="#CMMI12-53" transform="translate(99.626675 0) scale(0.996264)"/>
     <use xlink:href="#CMMI12-57" transform="translate(165.421114 47.87587) scale(0.697382)"/>
     <use xlink:href="#CMMI12-3b" transform="translate(227.991164 47.87587) scale(0.697382)"/>
     <use xlink:href="#CMMI12-51" transform="translate(246.959096 47.87587) scale(0.697382)"/>
     <use xlink:href="#CMMI12-69" transform="translate(159.621162 -27.34372) scale(0.697382)"/>
     <use xlink:href="#CMMI12-6a" transform="translate(182.91607 -27.34372) scale(0.697382)"/>
     <use xlink:href="#CMR17-3d" transform="translate(329.213265 0) scale(0.996264)"/>
     <use xlink:href="#CMSY10-6a" transform="translate(428.602062 0) scale(0.996264)"/>
     <use xlink:href="#CMMI12-57" transform="translate(456.276147 0) scale(0.996264)"/>
     <use xlink:href="#CMMI12-51" transform="translate(561.920645 47.87587) scale(0.697382)"/>
     <use xlink:href="#CMMI12-69" transform="translate(548.372056 -27.34372) scale(0.697382)"/>
     <use xlink:href="#CMMI12-6a" transform="translate(571.666964 -27.34372) scale(0.697382)"/>
     <use xlink:href="#CMSY10-6a" transform="translate(616.500805 0) scale(0.996264)"/>
     <path d="M 99.626675 117.475999
L 301.539256 117.475999
L 301.539256 121.460949
L 99.626675 121.460949
L 99.626675 117.475999
z
"/>
    </g>
   </g>
   <g id="text_5">
    <!-- $\lVert X_{j:}\rVert_2$ -->
    <g style="fill: #9f3518" transform="translate(377.819776 32.4) scale(0.2 -0.2)">
     <defs>
      <path id="CMSY10-6b" d="M 1103 4582
C 1103 4685 1103 4800 975 4800
C 847 4800 847 4659 847 4563
L 847 -1363
C 847 -1466 847 -1600 975 -1600
C 1103 -1600 1103 -1485 1103 -1382
L 1103 4582
z
M 2351 4563
C 2351 4666 2351 4800 2223 4800
C 2095 4800 2095 4685 2095 4582
L 2095 -1382
C 2095 -1485 2095 -1600 2223 -1600
C 2351 -1600 2351 -1459 2351 -1363
L 2351 4563
z
" transform="scale(0.015625)"/>
      <path id="CMMI12-58" d="M 3040 2596
L 2438 3994
C 2522 4147 2714 4172 2790 4179
C 2829 4179 2899 4179 2899 4292
C 2899 4364 2842 4364 2803 4364
C 2694 4364 2566 4364 2458 4364
L 2086 4364
C 1696 4364 1414 4364 1408 4364
C 1357 4364 1293 4364 1293 4243
C 1293 4179 1350 4179 1434 4179
C 1805 4179 1830 4115 1894 3962
L 2656 2185
L 1267 693
C 1037 442 762 198 288 198
C 211 192 160 192 160 68
C 160 48 166 0 237 0
C 326 0 422 0 512 0
L 813 0
C 1018 0 1242 0 1440 0
C 1485 0 1562 0 1562 115
C 1562 179 1517 185 1478 185
C 1350 198 1267 268 1267 370
C 1267 479 1344 557 1530 748
L 2099 1368
C 2240 1516 2579 1886 2720 2026
L 3392 453
C 3398 441 3424 377 3424 370
C 3424 313 3283 198 3078 198
C 3040 198 2970 198 2970 71
C 2970 0 3034 0 3066 0
C 3174 0 3302 0 3411 0
L 4115 0
C 4230 0 4352 0 4461 0
C 4506 0 4576 0 4576 130
C 4576 198 4512 198 4454 198
C 4070 198 4058 230 3949 465
L 3104 2441
L 3917 3316
C 3981 3381 4128 3542 4186 3606
C 4461 3896 4717 4160 5235 4160
C 5299 4179 5363 4179 5363 4292
C 5363 4364 5306 4364 5280 4364
C 5190 4364 5094 4364 5005 4364
L 4710 4364
C 4506 4364 4282 4364 4083 4364
C 4038 4364 3962 4364 3962 4249
C 3962 4185 4006 4179 4045 4179
C 4147 4167 4256 4116 4256 3994
L 4250 3982
C 4243 3937 4230 3873 4160 3797
L 3040 2596
z
" transform="scale(0.015625)"/>
      <path id="CMR17-3a" d="M 1062 2491
C 1062 2650 934 2752 800 2752
C 672 2752 538 2650 538 2491
C 538 2332 666 2230 800 2230
C 928 2230 1062 2332 1062 2491
z
M 1062 261
C 1062 420 934 522 800 522
C 672 522 538 420 538 261
C 538 102 666 0 800 0
C 928 0 1062 102 1062 261
z
" transform="scale(0.015625)"/>
      <path id="CMR17-32" d="M 2669 989
L 2554 989
C 2490 536 2438 459 2413 420
C 2381 369 1920 369 1830 369
L 602 369
C 832 619 1280 1072 1824 1597
C 2214 1967 2669 2402 2669 3035
C 2669 3790 2067 4224 1395 4224
C 691 4224 262 3604 262 3030
C 262 2780 448 2748 525 2748
C 589 2748 781 2787 781 3010
C 781 3207 614 3264 525 3264
C 486 3264 448 3258 422 3245
C 544 3790 915 4058 1306 4058
C 1862 4058 2227 3617 2227 3035
C 2227 2479 1901 2000 1536 1584
L 262 146
L 262 0
L 2515 0
L 2669 989
z
" transform="scale(0.015625)"/>
     </defs>
     <use xlink:href="#CMSY10-6b" transform="scale(0.996264)"/>
     <use xlink:href="#CMMI12-58" transform="translate(49.813383 0) scale(0.996264)"/>
     <use xlink:href="#CMMI12-6a" transform="translate(130.773607 -14.943915) scale(0.697382)"/>
     <use xlink:href="#CMR17-3a" transform="translate(162.947191 -14.943915) scale(0.697382)"/>
     <use xlink:href="#CMSY10-6b" transform="translate(180.854982 0) scale(0.996264)"/>
     <use xlink:href="#CMR17-32" transform="translate(230.668365 -14.943915) scale(0.697382)"/>
    </g>
   </g>
   <g id="text_6">
    <!-- $\sqrt{S^Q_{ij}}=\lvert W^Q_{ij}\rvert$ -->
    <g style="fill: #17232e" transform="translate(783.870251 32.4) scale(0.2 -0.2)">
     <use xlink:href="#CMEX10-71" transform="translate(0 117.475999) scale(0.996264)"/>
     <use xlink:href="#CMMI12-53" transform="translate(99.626675 0) scale(0.996264)"/>
     <use xlink:href="#CMMI12-51" transform="translate(165.421114 47.87587) scale(0.697382)"/>
     <use xlink:href="#CMMI12-69" transform="translate(159.621162 -27.34372) scale(0.697382)"/>
     <use xlink:href="#CMMI12-6a" transform="translate(182.91607 -27.34372) scale(0.697382)"/>
     <use xlink:href="#CMR17-3d" transform="translate(247.675283 0) scale(0.996264)"/>
     <use xlink:href="#CMSY10-6a" transform="translate(347.06408 0) scale(0.996264)"/>
     <use xlink:href="#CMMI12-57" transform="translate(374.738165 0) scale(0.996264)"/>
     <use xlink:href="#CMMI12-51" transform="translate(480.382662 47.87587) scale(0.697382)"/>
     <use xlink:href="#CMMI12-69" transform="translate(466.834074 -27.34372) scale(0.697382)"/>
     <use xlink:href="#CMMI12-6a" transform="translate(490.128981 -27.34372) scale(0.697382)"/>
     <use xlink:href="#CMSY10-6a" transform="translate(534.962823 0) scale(0.996264)"/>
     <path d="M 99.626675 117.475999
L 220.001274 117.475999
L 220.001274 121.460949
L 99.626675 121.460949
L 99.626675 117.475999
z
"/>
    </g>
   </g>
   <g id="text_7">
    <!-- $\lVert X_{j:}\rVert_2$ -->
    <g style="fill: #9f3518" transform="translate(900.074491 32.4) scale(0.2 -0.2)">
     <use xlink:href="#CMSY10-6b" transform="scale(0.996264)"/>
     <use xlink:href="#CMMI12-58" transform="translate(49.813383 0) scale(0.996264)"/>
     <use xlink:href="#CMMI12-6a" transform="translate(130.773607 -14.943915) scale(0.697382)"/>
     <use xlink:href="#CMR17-3a" transform="translate(162.947191 -14.943915) scale(0.697382)"/>
     <use xlink:href="#CMSY10-6b" transform="translate(180.854982 0) scale(0.996264)"/>
     <use xlink:href="#CMR17-32" transform="translate(230.668365 -14.943915) scale(0.697382)"/>
    </g>
   </g>
   <g id="text_8">
    <!-- $\lVert K_{i:}\rVert_2$ -->
    <g style="fill: #176b62" transform="translate(956.62674 32.4) scale(0.2 -0.2)">
     <defs>
      <path id="CMMI12-4b" d="M 3200 2571
C 3194 2590 3168 2641 3168 2661
C 3168 2667 3174 2673 3283 2756
L 3904 3242
C 4762 3905 5043 4128 5485 4167
C 5530 4167 5594 4167 5594 4282
C 5594 4320 5574 4352 5523 4352
C 5453 4352 5376 4352 5306 4352
L 5062 4352
C 4864 4352 4653 4352 4461 4352
C 4416 4352 4339 4352 4339 4237
C 4339 4173 4384 4167 4422 4167
C 4493 4160 4576 4135 4576 4046
C 4576 3919 4384 3765 4333 3727
L 1824 1784
L 2355 3887
C 2413 4103 2426 4167 2880 4167
C 3002 4167 3059 4167 3059 4288
C 3059 4352 2995 4352 2963 4352
C 2848 4352 2714 4352 2592 4352
L 1837 4352
C 1722 4352 1581 4352 1466 4352
C 1414 4352 1344 4352 1344 4231
C 1344 4167 1402 4167 1498 4167
C 1888 4167 1888 4116 1888 4046
C 1888 4034 1888 3995 1862 3899
L 998 472
C 941 249 928 185 480 185
C 358 185 294 185 294 70
C 294 0 352 0 390 0
C 512 0 640 0 762 0
L 1510 0
C 1632 0 1766 0 1888 0
C 1939 0 2010 0 2010 121
C 2010 185 1952 185 1856 185
C 1466 185 1466 236 1466 300
C 1466 345 1504 504 1530 606
L 1779 1593
L 2752 2351
C 2938 1943 3277 1128 3539 505
C 3558 466 3571 428 3571 383
C 3571 185 3315 185 3258 185
C 3200 185 3136 185 3136 64
C 3136 0 3206 0 3226 0
C 3450 0 3686 0 3910 0
L 4218 0
C 4314 0 4422 0 4518 0
C 4557 0 4627 0 4627 121
C 4627 185 4570 185 4506 185
C 4269 185 4186 236 4090 466
L 3200 2571
z
" transform="scale(0.015625)"/>
     </defs>
     <use xlink:href="#CMSY10-6b" transform="scale(0.996264)"/>
     <use xlink:href="#CMMI12-4b" transform="translate(49.813383 0) scale(0.996264)"/>
     <use xlink:href="#CMMI12-69" transform="translate(132.805994 -14.943915) scale(0.697382)"/>
     <use xlink:href="#CMR17-3a" transform="translate(156.100901 -14.943915) scale(0.697382)"/>
     <use xlink:href="#CMSY10-6b" transform="translate(174.008692 0) scale(0.996264)"/>
     <use xlink:href="#CMR17-32" transform="translate(223.822075 -14.943915) scale(0.697382)"/>
    </g>
   </g>
   <g id="text_9">
    <!-- $\sqrt{S^{W,K}_{ij}}=\lvert W^K_{ij}\rvert$ -->
    <g style="fill: #17232e" transform="translate(243.503812 69.84) scale(0.2 -0.2)">
     <use xlink:href="#CMEX10-71" transform="translate(0 117.475999) scale(0.996264)"/>
     <use xlink:href="#CMMI12-53" transform="translate(99.626675 0) scale(0.996264)"/>
     <use xlink:href="#CMMI12-57" transform="translate(165.421114 47.87587) scale(0.697382)"/>
     <use xlink:href="#CMMI12-3b" transform="translate(227.991164 47.87587) scale(0.697382)"/>
     <use xlink:href="#CMMI12-4b" transform="translate(246.959096 47.87587) scale(0.697382)"/>
     <use xlink:href="#CMMI12-69" transform="translate(159.621162 -27.34372) scale(0.697382)"/>
     <use xlink:href="#CMMI12-6a" transform="translate(182.91607 -27.34372) scale(0.697382)"/>
     <use xlink:href="#CMR17-3d" transform="translate(338.23414 0) scale(0.996264)"/>
     <use xlink:href="#CMSY10-6a" transform="translate(437.622937 0) scale(0.996264)"/>
     <use xlink:href="#CMMI12-57" transform="translate(465.297022 0) scale(0.996264)"/>
     <use xlink:href="#CMMI12-4b" transform="translate(570.941519 36.153639) scale(0.697382)"/>
     <use xlink:href="#CMMI12-69" transform="translate(557.392931 -25.505809) scale(0.697382)"/>
     <use xlink:href="#CMMI12-6a" transform="translate(580.687838 -25.505809) scale(0.697382)"/>
     <use xlink:href="#CMSY10-6a" transform="translate(634.542554 0) scale(0.996264)"/>
     <path d="M 99.626675 117.475999
L 310.560131 117.475999
L 310.560131 121.460949
L 99.626675 121.460949
L 99.626675 117.475999
z
"/>
    </g>
   </g>
   <g id="text_10">
    <!-- $\lVert X_{j:}\rVert_2$ -->
    <g style="fill: #9f3518" transform="translate(379.623939 69.84) scale(0.2 -0.2)">
     <use xlink:href="#CMSY10-6b" transform="scale(0.996264)"/>
     <use xlink:href="#CMMI12-58" transform="translate(49.813383 0) scale(0.996264)"/>
     <use xlink:href="#CMMI12-6a" transform="translate(130.773607 -14.943915) scale(0.697382)"/>
     <use xlink:href="#CMR17-3a" transform="translate(162.947191 -14.943915) scale(0.697382)"/>
     <use xlink:href="#CMSY10-6b" transform="translate(180.854982 0) scale(0.996264)"/>
     <use xlink:href="#CMR17-32" transform="translate(230.668365 -14.943915) scale(0.697382)"/>
    </g>
   </g>
   <g id="text_11">
    <!-- $\sqrt{S^K_{ij}}=\lvert W^K_{ij}\rvert$ -->
    <g style="fill: #17232e" transform="translate(782.639309 69.84) scale(0.2 -0.2)">
     <use xlink:href="#CMEX10-71" transform="translate(0 110.695928) scale(0.996264)"/>
     <use xlink:href="#CMMI12-53" transform="translate(99.626675 0) scale(0.996264)"/>
     <use xlink:href="#CMMI12-4b" transform="translate(165.421114 34.315728) scale(0.697382)"/>
     <use xlink:href="#CMMI12-69" transform="translate(159.621162 -27.34372) scale(0.697382)"/>
     <use xlink:href="#CMMI12-6a" transform="translate(182.91607 -27.34372) scale(0.697382)"/>
     <use xlink:href="#CMR17-3d" transform="translate(256.696157 0) scale(0.996264)"/>
     <use xlink:href="#CMSY10-6a" transform="translate(356.084954 0) scale(0.996264)"/>
     <use xlink:href="#CMMI12-57" transform="translate(383.759039 0) scale(0.996264)"/>
     <use xlink:href="#CMMI12-4b" transform="translate(489.403537 36.153639) scale(0.697382)"/>
     <use xlink:href="#CMMI12-69" transform="translate(475.854948 -25.505809) scale(0.697382)"/>
     <use xlink:href="#CMMI12-6a" transform="translate(499.149856 -25.505809) scale(0.697382)"/>
     <use xlink:href="#CMSY10-6a" transform="translate(553.004571 0) scale(0.996264)"/>
     <path d="M 99.626675 110.695928
L 229.022148 110.695928
L 229.022148 114.680878
L 99.626675 114.680878
L 99.626675 110.695928
z
"/>
    </g>
   </g>
   <g id="text_12">
    <!-- $\lVert X_{j:}\rVert_2$ -->
    <g style="fill: #9f3518" transform="translate(902.451875 69.84) scale(0.2 -0.2)">
     <use xlink:href="#CMSY10-6b" transform="scale(0.996264)"/>
     <use xlink:href="#CMMI12-58" transform="translate(49.813383 0) scale(0.996264)"/>
     <use xlink:href="#CMMI12-6a" transform="translate(130.773607 -14.943915) scale(0.697382)"/>
     <use xlink:href="#CMR17-3a" transform="translate(162.947191 -14.943915) scale(0.697382)"/>
     <use xlink:href="#CMSY10-6b" transform="translate(180.854982 0) scale(0.996264)"/>
     <use xlink:href="#CMR17-32" transform="translate(230.668365 -14.943915) scale(0.697382)"/>
    </g>
   </g>
   <g id="text_13">
    <!-- $\lVert Q_{i:}\rVert_2$ -->
    <g style="fill: #176b62" transform="translate(959.004124 69.84) scale(0.2 -0.2)">
     <use xlink:href="#CMSY10-6b" transform="scale(0.996264)"/>
     <use xlink:href="#CMMI12-51" transform="translate(49.813383 0) scale(0.996264)"/>
     <use xlink:href="#CMMI12-69" transform="translate(127.073782 -14.943915) scale(0.697382)"/>
     <use xlink:href="#CMR17-3a" transform="translate(150.368689 -14.943915) scale(0.697382)"/>
     <use xlink:href="#CMSY10-6b" transform="translate(168.27648 0) scale(0.996264)"/>
     <use xlink:href="#CMR17-32" transform="translate(218.089863 -14.943915) scale(0.697382)"/>
    </g>
   </g>
   <g id="text_14">
    <!-- Weights and -->
    <g style="fill: #17232e" transform="translate(72.492656 89.624656) scale(0.14 -0.14)">
     <defs>
      <path id="DejaVuSans-57" d="M 213 4666
L 850 4666
L 1831 722
L 2809 4666
L 3519 4666
L 4500 722
L 5478 4666
L 6119 4666
L 4947 0
L 4153 0
L 3169 4050
L 2175 0
L 1381 0
L 213 4666
z
" transform="scale(0.015625)"/>
      <path id="DejaVuSans-65" d="M 3597 1894
L 3597 1613
L 953 1613
Q 991 1019 1311 708
Q 1631 397 2203 397
Q 2534 397 2845 478
Q 3156 559 3463 722
L 3463 178
Q 3153 47 2828 -22
Q 2503 -91 2169 -91
Q 1331 -91 842 396
Q 353 884 353 1716
Q 353 2575 817 3079
Q 1281 3584 2069 3584
Q 2775 3584 3186 3129
Q 3597 2675 3597 1894
z
M 3022 2063
Q 3016 2534 2758 2815
Q 2500 3097 2075 3097
Q 1594 3097 1305 2825
Q 1016 2553 972 2059
L 3022 2063
z
" transform="scale(0.015625)"/>
      <path id="DejaVuSans-69" d="M 603 3500
L 1178 3500
L 1178 0
L 603 0
L 603 3500
z
M 603 4863
L 1178 4863
L 1178 4134
L 603 4134
L 603 4863
z
" transform="scale(0.015625)"/>
      <path id="DejaVuSans-67" d="M 2906 1791
Q 2906 2416 2648 2759
Q 2391 3103 1925 3103
Q 1463 3103 1205 2759
Q 947 2416 947 1791
Q 947 1169 1205 825
Q 1463 481 1925 481
Q 2391 481 2648 825
Q 2906 1169 2906 1791
z
M 3481 434
Q 3481 -459 3084 -895
Q 2688 -1331 1869 -1331
Q 1566 -1331 1297 -1286
Q 1028 -1241 775 -1147
L 775 -588
Q 1028 -725 1275 -790
Q 1522 -856 1778 -856
Q 2344 -856 2625 -561
Q 2906 -266 2906 331
L 2906 616
Q 2728 306 2450 153
Q 2172 0 1784 0
Q 1141 0 747 490
Q 353 981 353 1791
Q 353 2603 747 3093
Q 1141 3584 1784 3584
Q 2172 3584 2450 3431
Q 2728 3278 2906 2969
L 2906 3500
L 3481 3500
L 3481 434
z
" transform="scale(0.015625)"/>
      <path id="DejaVuSans-68" d="M 3513 2113
L 3513 0
L 2938 0
L 2938 2094
Q 2938 2591 2744 2837
Q 2550 3084 2163 3084
Q 1697 3084 1428 2787
Q 1159 2491 1159 1978
L 1159 0
L 581 0
L 581 4863
L 1159 4863
L 1159 2956
Q 1366 3272 1645 3428
Q 1925 3584 2291 3584
Q 2894 3584 3203 3211
Q 3513 2838 3513 2113
z
" transform="scale(0.015625)"/>
      <path id="DejaVuSans-74" d="M 1172 4494
L 1172 3500
L 2356 3500
L 2356 3053
L 1172 3053
L 1172 1153
Q 1172 725 1289 603
Q 1406 481 1766 481
L 2356 481
L 2356 0
L 1766 0
Q 1100 0 847 248
Q 594 497 594 1153
L 594 3053
L 172 3053
L 172 3500
L 594 3500
L 594 4494
L 1172 4494
z
" transform="scale(0.015625)"/>
      <path id="DejaVuSans-73" d="M 2834 3397
L 2834 2853
Q 2591 2978 2328 3040
Q 2066 3103 1784 3103
Q 1356 3103 1142 2972
Q 928 2841 928 2578
Q 928 2378 1081 2264
Q 1234 2150 1697 2047
L 1894 2003
Q 2506 1872 2764 1633
Q 3022 1394 3022 966
Q 3022 478 2636 193
Q 2250 -91 1575 -91
Q 1294 -91 989 -36
Q 684 19 347 128
L 347 722
Q 666 556 975 473
Q 1284 391 1588 391
Q 1994 391 2212 530
Q 2431 669 2431 922
Q 2431 1156 2273 1281
Q 2116 1406 1581 1522
L 1381 1569
Q 847 1681 609 1914
Q 372 2147 372 2553
Q 372 3047 722 3315
Q 1072 3584 1716 3584
Q 2034 3584 2315 3537
Q 2597 3491 2834 3397
z
" transform="scale(0.015625)"/>
      <path id="DejaVuSans-20" transform="scale(0.015625)"/>
      <path id="DejaVuSans-61" d="M 2194 1759
Q 1497 1759 1228 1600
Q 959 1441 959 1056
Q 959 750 1161 570
Q 1363 391 1709 391
Q 2188 391 2477 730
Q 2766 1069 2766 1631
L 2766 1759
L 2194 1759
z
M 3341 1997
L 3341 0
L 2766 0
L 2766 531
Q 2569 213 2275 61
Q 1981 -91 1556 -91
Q 1019 -91 701 211
Q 384 513 384 1019
Q 384 1609 779 1909
Q 1175 2209 1959 2209
L 2766 2209
L 2766 2266
Q 2766 2663 2505 2880
Q 2244 3097 1772 3097
Q 1472 3097 1187 3025
Q 903 2953 641 2809
L 641 3341
Q 956 3463 1253 3523
Q 1550 3584 1831 3584
Q 2591 3584 2966 3190
Q 3341 2797 3341 1997
z
" transform="scale(0.015625)"/>
      <path id="DejaVuSans-6e" d="M 3513 2113
L 3513 0
L 2938 0
L 2938 2094
Q 2938 2591 2744 2837
Q 2550 3084 2163 3084
Q 1697 3084 1428 2787
Q 1159 2491 1159 1978
L 1159 0
L 581 0
L 581 3500
L 1159 3500
L 1159 2956
Q 1366 3272 1645 3428
Q 1925 3584 2291 3584
Q 2894 3584 3203 3211
Q 3513 2838 3513 2113
z
" transform="scale(0.015625)"/>
      <path id="DejaVuSans-64" d="M 2906 2969
L 2906 4863
L 3481 4863
L 3481 0
L 2906 0
L 2906 525
Q 2725 213 2448 61
Q 2172 -91 1784 -91
Q 1150 -91 751 415
Q 353 922 353 1747
Q 353 2572 751 3078
Q 1150 3584 1784 3584
Q 2172 3584 2448 3432
Q 2725 3281 2906 2969
z
M 947 1747
Q 947 1113 1208 752
Q 1469 391 1925 391
Q 2381 391 2643 752
Q 2906 1113 2906 1747
Q 2906 2381 2643 2742
Q 2381 3103 1925 3103
Q 1469 3103 1208 2742
Q 947 2381 947 1747
z
" transform="scale(0.015625)"/>
     </defs>
     <use xlink:href="#DejaVuSans-57"/>
     <use xlink:href="#DejaVuSans-65" transform="translate(93.001953 0)"/>
     <use xlink:href="#DejaVuSans-69" transform="translate(154.525391 0)"/>
     <use xlink:href="#DejaVuSans-67" transform="translate(182.308594 0)"/>
     <use xlink:href="#DejaVuSans-68" transform="translate(245.785156 0)"/>
     <use xlink:href="#DejaVuSans-74" transform="translate(309.164062 0)"/>
     <use xlink:href="#DejaVuSans-73" transform="translate(348.373047 0)"/>
     <use xlink:href="#DejaVuSans-20" transform="translate(400.472656 0)"/>
     <use xlink:href="#DejaVuSans-61" transform="translate(432.259766 0)"/>
     <use xlink:href="#DejaVuSans-6e" transform="translate(493.539062 0)"/>
     <use xlink:href="#DejaVuSans-64" transform="translate(556.917969 0)"/>
    </g>
    <!-- activations -->
    <g style="fill: #17232e" transform="translate(77.604844 105.301594) scale(0.14 -0.14)">
     <defs>
      <path id="DejaVuSans-63" d="M 3122 3366
L 3122 2828
Q 2878 2963 2633 3030
Q 2388 3097 2138 3097
Q 1578 3097 1268 2742
Q 959 2388 959 1747
Q 959 1106 1268 751
Q 1578 397 2138 397
Q 2388 397 2633 464
Q 2878 531 3122 666
L 3122 134
Q 2881 22 2623 -34
Q 2366 -91 2075 -91
Q 1284 -91 818 406
Q 353 903 353 1747
Q 353 2603 823 3093
Q 1294 3584 2113 3584
Q 2378 3584 2631 3529
Q 2884 3475 3122 3366
z
" transform="scale(0.015625)"/>
      <path id="DejaVuSans-76" d="M 191 3500
L 800 3500
L 1894 563
L 2988 3500
L 3597 3500
L 2284 0
L 1503 0
L 191 3500
z
" transform="scale(0.015625)"/>
      <path id="DejaVuSans-6f" d="M 1959 3097
Q 1497 3097 1228 2736
Q 959 2375 959 1747
Q 959 1119 1226 758
Q 1494 397 1959 397
Q 2419 397 2687 759
Q 2956 1122 2956 1747
Q 2956 2369 2687 2733
Q 2419 3097 1959 3097
z
M 1959 3584
Q 2709 3584 3137 3096
Q 3566 2609 3566 1747
Q 3566 888 3137 398
Q 2709 -91 1959 -91
Q 1206 -91 779 398
Q 353 888 353 1747
Q 353 2609 779 3096
Q 1206 3584 1959 3584
z
" transform="scale(0.015625)"/>
     </defs>
     <use xlink:href="#DejaVuSans-61"/>
     <use xlink:href="#DejaVuSans-63" transform="translate(61.279297 0)"/>
     <use xlink:href="#DejaVuSans-74" transform="translate(116.259766 0)"/>
     <use xlink:href="#DejaVuSans-69" transform="translate(155.46875 0)"/>
     <use xlink:href="#DejaVuSans-76" transform="translate(183.251953 0)"/>
     <use xlink:href="#DejaVuSans-61" transform="translate(242.431641 0)"/>
     <use xlink:href="#DejaVuSans-74" transform="translate(303.710938 0)"/>
     <use xlink:href="#DejaVuSans-69" transform="translate(342.919922 0)"/>
     <use xlink:href="#DejaVuSans-6f" transform="translate(370.703125 0)"/>
     <use xlink:href="#DejaVuSans-6e" transform="translate(431.884766 0)"/>
     <use xlink:href="#DejaVuSans-73" transform="translate(495.263672 0)"/>
    </g>
   </g>
   <g id="text_15">
    <!-- Pruning scores -->
    <g style="fill: #17232e" transform="translate(212.169531 97.463125) scale(0.14 -0.14)">
     <defs>
      <path id="DejaVuSans-50" d="M 1259 4147
L 1259 2394
L 2053 2394
Q 2494 2394 2734 2622
Q 2975 2850 2975 3272
Q 2975 3691 2734 3919
Q 2494 4147 2053 4147
L 1259 4147
z
M 628 4666
L 2053 4666
Q 2838 4666 3239 4311
Q 3641 3956 3641 3272
Q 3641 2581 3239 2228
Q 2838 1875 2053 1875
L 1259 1875
L 1259 0
L 628 0
L 628 4666
z
" transform="scale(0.015625)"/>
      <path id="DejaVuSans-72" d="M 2631 2963
Q 2534 3019 2420 3045
Q 2306 3072 2169 3072
Q 1681 3072 1420 2755
Q 1159 2438 1159 1844
L 1159 0
L 581 0
L 581 3500
L 1159 3500
L 1159 2956
Q 1341 3275 1631 3429
Q 1922 3584 2338 3584
Q 2397 3584 2469 3576
Q 2541 3569 2628 3553
L 2631 2963
z
" transform="scale(0.015625)"/>
      <path id="DejaVuSans-75" d="M 544 1381
L 544 3500
L 1119 3500
L 1119 1403
Q 1119 906 1312 657
Q 1506 409 1894 409
Q 2359 409 2629 706
Q 2900 1003 2900 1516
L 2900 3500
L 3475 3500
L 3475 0
L 2900 0
L 2900 538
Q 2691 219 2414 64
Q 2138 -91 1772 -91
Q 1169 -91 856 284
Q 544 659 544 1381
z
M 1991 3584
L 1991 3584
z
" transform="scale(0.015625)"/>
     </defs>
     <use xlink:href="#DejaVuSans-50"/>
     <use xlink:href="#DejaVuSans-72" transform="translate(58.552734 0)"/>
     <use xlink:href="#DejaVuSans-75" transform="translate(99.666016 0)"/>
     <use xlink:href="#DejaVuSans-6e" transform="translate(163.044922 0)"/>
     <use xlink:href="#DejaVuSans-69" transform="translate(226.423828 0)"/>
     <use xlink:href="#DejaVuSans-6e" transform="translate(254.207031 0)"/>
     <use xlink:href="#DejaVuSans-67" transform="translate(317.585938 0)"/>
     <use xlink:href="#DejaVuSans-20" transform="translate(381.0625 0)"/>
     <use xlink:href="#DejaVuSans-73" transform="translate(412.849609 0)"/>
     <use xlink:href="#DejaVuSans-63" transform="translate(464.949219 0)"/>
     <use xlink:href="#DejaVuSans-6f" transform="translate(519.929688 0)"/>
     <use xlink:href="#DejaVuSans-72" transform="translate(581.111328 0)"/>
     <use xlink:href="#DejaVuSans-65" transform="translate(619.974609 0)"/>
     <use xlink:href="#DejaVuSans-73" transform="translate(681.498047 0)"/>
    </g>
   </g>
   <g id="text_16">
    <!-- Pruned weights -->
    <g style="fill: #17232e" transform="translate(349.848281 97.463125) scale(0.14 -0.14)">
     <defs>
      <path id="DejaVuSans-77" d="M 269 3500
L 844 3500
L 1563 769
L 2278 3500
L 2956 3500
L 3675 769
L 4391 3500
L 4966 3500
L 4050 0
L 3372 0
L 2619 2869
L 1863 0
L 1184 0
L 269 3500
z
" transform="scale(0.015625)"/>
     </defs>
     <use xlink:href="#DejaVuSans-50"/>
     <use xlink:href="#DejaVuSans-72" transform="translate(58.552734 0)"/>
     <use xlink:href="#DejaVuSans-75" transform="translate(99.666016 0)"/>
     <use xlink:href="#DejaVuSans-6e" transform="translate(163.044922 0)"/>
     <use xlink:href="#DejaVuSans-65" transform="translate(226.423828 0)"/>
     <use xlink:href="#DejaVuSans-64" transform="translate(287.947266 0)"/>
     <use xlink:href="#DejaVuSans-20" transform="translate(351.423828 0)"/>
     <use xlink:href="#DejaVuSans-77" transform="translate(383.210938 0)"/>
     <use xlink:href="#DejaVuSans-65" transform="translate(464.998047 0)"/>
     <use xlink:href="#DejaVuSans-69" transform="translate(526.521484 0)"/>
     <use xlink:href="#DejaVuSans-67" transform="translate(554.304688 0)"/>
     <use xlink:href="#DejaVuSans-68" transform="translate(617.78125 0)"/>
     <use xlink:href="#DejaVuSans-74" transform="translate(681.160156 0)"/>
     <use xlink:href="#DejaVuSans-73" transform="translate(720.369141 0)"/>
    </g>
   </g>
   <g id="text_17">
    <!-- $W^Q$ -->
    <g style="fill: #17232e" transform="translate(37.30735 180.660682) scale(0.2 -0.2)">
     <use xlink:href="#CMMI12-57" transform="scale(0.996264)"/>
     <use xlink:href="#CMMI12-51" transform="translate(105.644498 36.153639) scale(0.697382)"/>
    </g>
   </g>
   <g id="text_18">
    <!-- $-1$ -->
    <g style="fill: #17232e" transform="translate(83.442209 160.500682) scale(0.2 -0.2)">
     <defs>
      <path id="CMSY10-0" d="M 4218 1472
C 4326 1472 4442 1472 4442 1600
C 4442 1728 4326 1728 4218 1728
L 755 1728
C 646 1728 531 1728 531 1600
C 531 1472 646 1472 755 1472
L 4218 1472
z
" transform="scale(0.015625)"/>
      <path id="CMR17-31" d="M 1702 4058
C 1702 4192 1696 4192 1606 4192
C 1357 3916 979 3827 621 3827
C 602 3827 570 3827 563 3808
C 557 3795 557 3782 557 3648
C 755 3648 1088 3686 1344 3839
L 1344 461
C 1344 236 1331 160 781 160
L 589 160
L 589 0
C 896 0 1216 0 1523 0
C 1830 0 2150 0 2458 0
L 2458 160
L 2266 160
C 1715 160 1702 230 1702 458
L 1702 4058
z
" transform="scale(0.015625)"/>
     </defs>
     <use xlink:href="#CMSY10-0" transform="scale(0.996264)"/>
     <use xlink:href="#CMR17-31" transform="translate(77.487468 0) scale(0.996264)"/>
    </g>
   </g>
   <g id="text_19">
    <!-- $1$ -->
    <g style="fill: #17232e" transform="translate(131.510952 160.500682) scale(0.2 -0.2)">
     <use xlink:href="#CMR17-31" transform="scale(0.996264)"/>
    </g>
   </g>
   <g id="text_20">
    <!-- $1$ -->
    <g style="fill: #17232e" transform="translate(91.190952 200.820682) scale(0.2 -0.2)">
     <use xlink:href="#CMR17-31" transform="scale(0.996264)"/>
    </g>
   </g>
   <g id="text_21">
    <!-- $1$ -->
    <g style="fill: #17232e" transform="translate(131.510952 200.820682) scale(0.2 -0.2)">
     <use xlink:href="#CMR17-31" transform="scale(0.996264)"/>
    </g>
   </g>
   <g id="text_22">
    <!-- $1$ -->
    <g style="fill: #17232e" transform="translate(91.190952 253.380682) scale(0.2 -0.2)">
     <use xlink:href="#CMR17-31" transform="scale(0.996264)"/>
    </g>
   </g>
   <g id="text_23">
    <!-- $2$ -->
    <g style="fill: #17232e" transform="translate(131.510952 253.380682) scale(0.2 -0.2)">
     <use xlink:href="#CMR17-32" transform="scale(0.996264)"/>
    </g>
   </g>
   <g id="text_24">
    <!-- $\lVert X_{j:}\rVert_2$ -->
    <g style="fill: #9f3518" transform="translate(23.655701 252.097256) scale(0.16 -0.16)">
     <use xlink:href="#CMSY10-6b" transform="scale(0.996264)"/>
     <use xlink:href="#CMMI12-58" transform="translate(49.813383 0) scale(0.996264)"/>
     <use xlink:href="#CMMI12-6a" transform="translate(130.773607 -14.943915) scale(0.697382)"/>
     <use xlink:href="#CMR17-3a" transform="translate(162.947191 -14.943915) scale(0.697382)"/>
     <use xlink:href="#CMSY10-6b" transform="translate(180.854982 0) scale(0.996264)"/>
     <use xlink:href="#CMR17-32" transform="translate(230.668365 -14.943915) scale(0.697382)"/>
    </g>
   </g>
   <g id="text_25">
    <!-- $\times$ -->
    <g style="fill: #9f3518" transform="translate(109.721002 228.625056) scale(0.16 -0.16)">
     <defs>
      <path id="CMSY10-2" d="M 2490 1785
L 1210 3059
C 1133 3136 1120 3148 1069 3148
C 1005 3148 941 3091 941 3020
C 941 2976 954 2963 1024 2892
L 2304 1606
L 1024 320
C 954 249 941 236 941 192
C 941 121 1005 64 1069 64
C 1120 64 1133 76 1210 153
L 2483 1427
L 3808 102
C 3821 96 3866 64 3904 64
C 3981 64 4032 121 4032 192
C 4032 204 4032 230 4013 262
C 4006 275 2989 1280 2669 1606
L 3840 2777
C 3872 2816 3968 2899 4000 2937
C 4006 2950 4032 2976 4032 3020
C 4032 3091 3981 3148 3904 3148
C 3853 3148 3827 3123 3757 3052
L 2490 1785
z
" transform="scale(0.015625)"/>
     </defs>
     <use xlink:href="#CMSY10-2" transform="scale(0.996264)"/>
    </g>
   </g>
   <g id="text_26">
    <!-- $1$ -->
    <g style="fill: #17232e" transform="translate(238.790952 160.500682) scale(0.2 -0.2)">
     <use xlink:href="#CMR17-31" transform="scale(0.996264)"/>
    </g>
   </g>
   <g id="text_27">
    <!-- $2$ -->
    <g style="fill: #17232e" transform="translate(279.110952 160.500682) scale(0.2 -0.2)">
     <use xlink:href="#CMR17-32" transform="scale(0.996264)"/>
    </g>
   </g>
   <g id="text_28">
    <!-- $1$ -->
    <g style="fill: #17232e" transform="translate(238.790952 200.820682) scale(0.2 -0.2)">
     <use xlink:href="#CMR17-31" transform="scale(0.996264)"/>
    </g>
   </g>
   <g id="text_29">
    <!-- $2$ -->
    <g style="fill: #17232e" transform="translate(279.110952 200.820682) scale(0.2 -0.2)">
     <use xlink:href="#CMR17-32" transform="scale(0.996264)"/>
    </g>
   </g>
   <g id="text_30">
    <!-- $\widehat W^Q$ -->
    <g style="fill: #17232e" transform="translate(449.945991 181.488958) scale(0.19 -0.19)">
     <defs>
      <path id="CMEX10-63" d="M 3194 4563
L 6368 3680
L 6419 3834
L 3200 4941
L -26 3834
L 26 3680
L 3194 4563
z
" transform="scale(0.015625)"/>
     </defs>
     <use xlink:href="#CMEX10-63" transform="translate(3.008919 25.183364) scale(0.996264)"/>
     <use xlink:href="#CMMI12-57" transform="scale(0.996264)"/>
     <use xlink:href="#CMMI12-51" transform="translate(105.644498 36.153639) scale(0.697382)"/>
    </g>
   </g>
   <g id="text_31">
    <!-- $0$ -->
    <g style="fill: #637b8c" transform="translate(379.190952 160.500682) scale(0.2 -0.2)">
     <defs>
      <path id="CMR17-30" d="M 2688 2025
C 2688 2416 2682 3080 2413 3591
C 2176 4039 1798 4198 1466 4198
C 1158 4198 768 4058 525 3597
C 269 3118 243 2524 243 2025
C 243 1661 250 1106 448 619
C 723 -39 1216 -128 1466 -128
C 1760 -128 2208 -7 2470 600
C 2662 1042 2688 1559 2688 2025
z
M 1466 -26
C 1056 -26 813 325 723 812
C 653 1188 653 1738 653 2096
C 653 2588 653 2997 736 3387
C 858 3929 1216 4096 1466 4096
C 1728 4096 2067 3923 2189 3400
C 2272 3036 2278 2607 2278 2096
C 2278 1680 2278 1169 2202 792
C 2067 95 1690 -26 1466 -26
z
" transform="scale(0.015625)"/>
     </defs>
     <use xlink:href="#CMR17-30" transform="scale(0.996264)"/>
    </g>
   </g>
   <g id="text_32">
    <!-- $1$ -->
    <g style="fill: #17232e" transform="translate(419.510952 160.500682) scale(0.2 -0.2)">
     <use xlink:href="#CMR17-31" transform="scale(0.996264)"/>
    </g>
   </g>
   <g id="text_33">
    <!-- $0$ -->
    <g style="fill: #637b8c" transform="translate(379.190952 200.820682) scale(0.2 -0.2)">
     <use xlink:href="#CMR17-30" transform="scale(0.996264)"/>
    </g>
   </g>
   <g id="text_34">
    <!-- $1$ -->
    <g style="fill: #17232e" transform="translate(419.510952 200.820682) scale(0.2 -0.2)">
     <use xlink:href="#CMR17-31" transform="scale(0.996264)"/>
    </g>
   </g>
   <g id="text_35">
    <!-- 50% removed -->
    <g style="fill: #53616c" transform="translate(358.599766 239.027187) scale(0.13 -0.13)">
     <defs>
      <path id="DejaVuSans-35" d="M 691 4666
L 3169 4666
L 3169 4134
L 1269 4134
L 1269 2991
Q 1406 3038 1543 3061
Q 1681 3084 1819 3084
Q 2600 3084 3056 2656
Q 3513 2228 3513 1497
Q 3513 744 3044 326
Q 2575 -91 1722 -91
Q 1428 -91 1123 -41
Q 819 9 494 109
L 494 744
Q 775 591 1075 516
Q 1375 441 1709 441
Q 2250 441 2565 725
Q 2881 1009 2881 1497
Q 2881 1984 2565 2268
Q 2250 2553 1709 2553
Q 1456 2553 1204 2497
Q 953 2441 691 2322
L 691 4666
z
" transform="scale(0.015625)"/>
      <path id="DejaVuSans-30" d="M 2034 4250
Q 1547 4250 1301 3770
Q 1056 3291 1056 2328
Q 1056 1369 1301 889
Q 1547 409 2034 409
Q 2525 409 2770 889
Q 3016 1369 3016 2328
Q 3016 3291 2770 3770
Q 2525 4250 2034 4250
z
M 2034 4750
Q 2819 4750 3233 4129
Q 3647 3509 3647 2328
Q 3647 1150 3233 529
Q 2819 -91 2034 -91
Q 1250 -91 836 529
Q 422 1150 422 2328
Q 422 3509 836 4129
Q 1250 4750 2034 4750
z
" transform="scale(0.015625)"/>
      <path id="DejaVuSans-25" d="M 4653 2053
Q 4381 2053 4226 1822
Q 4072 1591 4072 1178
Q 4072 772 4226 539
Q 4381 306 4653 306
Q 4919 306 5073 539
Q 5228 772 5228 1178
Q 5228 1588 5073 1820
Q 4919 2053 4653 2053
z
M 4653 2450
Q 5147 2450 5437 2106
Q 5728 1763 5728 1178
Q 5728 594 5436 251
Q 5144 -91 4653 -91
Q 4153 -91 3862 251
Q 3572 594 3572 1178
Q 3572 1766 3864 2108
Q 4156 2450 4653 2450
z
M 1428 4353
Q 1159 4353 1004 4120
Q 850 3888 850 3481
Q 850 3069 1003 2837
Q 1156 2606 1428 2606
Q 1700 2606 1854 2837
Q 2009 3069 2009 3481
Q 2009 3884 1853 4118
Q 1697 4353 1428 4353
z
M 4250 4750
L 4750 4750
L 1831 -91
L 1331 -91
L 4250 4750
z
M 1428 4750
Q 1922 4750 2215 4408
Q 2509 4066 2509 3481
Q 2509 2891 2217 2550
Q 1925 2209 1428 2209
Q 931 2209 642 2551
Q 353 2894 353 3481
Q 353 4063 643 4406
Q 934 4750 1428 4750
z
" transform="scale(0.015625)"/>
      <path id="DejaVuSans-6d" d="M 3328 2828
Q 3544 3216 3844 3400
Q 4144 3584 4550 3584
Q 5097 3584 5394 3201
Q 5691 2819 5691 2113
L 5691 0
L 5113 0
L 5113 2094
Q 5113 2597 4934 2840
Q 4756 3084 4391 3084
Q 3944 3084 3684 2787
Q 3425 2491 3425 1978
L 3425 0
L 2847 0
L 2847 2094
Q 2847 2600 2669 2842
Q 2491 3084 2119 3084
Q 1678 3084 1418 2786
Q 1159 2488 1159 1978
L 1159 0
L 581 0
L 581 3500
L 1159 3500
L 1159 2956
Q 1356 3278 1631 3431
Q 1906 3584 2284 3584
Q 2666 3584 2933 3390
Q 3200 3197 3328 2828
z
" transform="scale(0.015625)"/>
     </defs>
     <use xlink:href="#DejaVuSans-35"/>
     <use xlink:href="#DejaVuSans-30" transform="translate(63.623047 0)"/>
     <use xlink:href="#DejaVuSans-25" transform="translate(127.246094 0)"/>
     <use xlink:href="#DejaVuSans-20" transform="translate(222.265625 0)"/>
     <use xlink:href="#DejaVuSans-72" transform="translate(254.052734 0)"/>
     <use xlink:href="#DejaVuSans-65" transform="translate(292.916016 0)"/>
     <use xlink:href="#DejaVuSans-6d" transform="translate(354.439453 0)"/>
     <use xlink:href="#DejaVuSans-6f" transform="translate(451.851562 0)"/>
     <use xlink:href="#DejaVuSans-76" transform="translate(513.033203 0)"/>
     <use xlink:href="#DejaVuSans-65" transform="translate(572.212891 0)"/>
     <use xlink:href="#DejaVuSans-64" transform="translate(633.736328 0)"/>
    </g>
   </g>
   <g id="text_36">
    <!-- $W^K$ -->
    <g style="fill: #17232e" transform="translate(36.906099 344.820682) scale(0.2 -0.2)">
     <use xlink:href="#CMMI12-57" transform="scale(0.996264)"/>
     <use xlink:href="#CMMI12-4b" transform="translate(105.644498 36.153639) scale(0.697382)"/>
    </g>
   </g>
   <g id="text_37">
    <!-- $-2$ -->
    <g style="fill: #17232e" transform="translate(83.442209 324.660682) scale(0.2 -0.2)">
     <use xlink:href="#CMSY10-0" transform="scale(0.996264)"/>
     <use xlink:href="#CMR17-32" transform="translate(77.487468 0) scale(0.996264)"/>
    </g>
   </g>
   <g id="text_38">
    <!-- $2$ -->
    <g style="fill: #17232e" transform="translate(131.510952 324.660682) scale(0.2 -0.2)">
     <use xlink:href="#CMR17-32" transform="scale(0.996264)"/>
    </g>
   </g>
   <g id="text_39">
    <!-- $3$ -->
    <g style="fill: #17232e" transform="translate(91.190952 364.980682) scale(0.2 -0.2)">
     <defs>
      <path id="CMR17-33" d="M 1414 2157
C 1984 2157 2234 1662 2234 1090
C 2234 320 1824 25 1453 25
C 1114 25 563 194 390 693
C 422 680 454 680 486 680
C 640 680 755 782 755 948
C 755 1133 614 1216 486 1216
C 378 1216 211 1165 211 926
C 211 335 787 -128 1466 -128
C 2176 -128 2720 430 2720 1085
C 2720 1707 2208 2157 1600 2227
C 2086 2328 2554 2756 2554 3329
C 2554 3820 2048 4179 1472 4179
C 890 4179 378 3829 378 3329
C 378 3110 544 3072 627 3072
C 762 3072 877 3155 877 3321
C 877 3486 762 3569 627 3569
C 602 3569 570 3569 544 3557
C 730 3959 1235 4032 1459 4032
C 1683 4032 2106 3925 2106 3320
C 2106 3143 2080 2828 1862 2550
C 1670 2304 1453 2304 1242 2284
C 1210 2284 1062 2269 1037 2269
C 992 2263 966 2257 966 2208
C 966 2163 973 2157 1101 2157
L 1414 2157
z
" transform="scale(0.015625)"/>
     </defs>
     <use xlink:href="#CMR17-33" transform="scale(0.996264)"/>
    </g>
   </g>
   <g id="text_40">
    <!-- $-1$ -->
    <g style="fill: #17232e" transform="translate(123.762209 364.980682) scale(0.2 -0.2)">
     <use xlink:href="#CMSY10-0" transform="scale(0.996264)"/>
     <use xlink:href="#CMR17-31" transform="translate(77.487468 0) scale(0.996264)"/>
    </g>
   </g>
   <g id="text_41">
    <!-- $1$ -->
    <g style="fill: #17232e" transform="translate(91.190952 417.540682) scale(0.2 -0.2)">
     <use xlink:href="#CMR17-31" transform="scale(0.996264)"/>
    </g>
   </g>
   <g id="text_42">
    <!-- $2$ -->
    <g style="fill: #17232e" transform="translate(131.510952 417.540682) scale(0.2 -0.2)">
     <use xlink:href="#CMR17-32" transform="scale(0.996264)"/>
    </g>
   </g>
   <g id="text_43">
    <!-- $\lVert X_{j:}\rVert_2$ -->
    <g style="fill: #9f3518" transform="translate(23.655701 416.257256) scale(0.16 -0.16)">
     <use xlink:href="#CMSY10-6b" transform="scale(0.996264)"/>
     <use xlink:href="#CMMI12-58" transform="translate(49.813383 0) scale(0.996264)"/>
     <use xlink:href="#CMMI12-6a" transform="translate(130.773607 -14.943915) scale(0.697382)"/>
     <use xlink:href="#CMR17-3a" transform="translate(162.947191 -14.943915) scale(0.697382)"/>
     <use xlink:href="#CMSY10-6b" transform="translate(180.854982 0) scale(0.996264)"/>
     <use xlink:href="#CMR17-32" transform="translate(230.668365 -14.943915) scale(0.697382)"/>
    </g>
   </g>
   <g id="text_44">
    <!-- $\times$ -->
    <g style="fill: #9f3518" transform="translate(109.721002 392.785056) scale(0.16 -0.16)">
     <use xlink:href="#CMSY10-2" transform="scale(0.996264)"/>
    </g>
   </g>
   <g id="text_45">
    <!-- $2$ -->
    <g style="fill: #17232e" transform="translate(238.790952 324.660682) scale(0.2 -0.2)">
     <use xlink:href="#CMR17-32" transform="scale(0.996264)"/>
    </g>
   </g>
   <g id="text_46">
    <!-- $4$ -->
    <g style="fill: #17232e" transform="translate(279.110952 324.660682) scale(0.2 -0.2)">
     <defs>
      <path id="CMR17-34" d="M 2150 4122
C 2150 4256 2144 4256 2029 4256
L 128 1254
L 128 1088
L 1779 1088
L 1779 457
C 1779 224 1766 160 1318 160
L 1197 160
L 1197 0
C 1402 0 1747 0 1965 0
C 2182 0 2528 0 2733 0
L 2733 160
L 2611 160
C 2163 160 2150 224 2150 457
L 2150 1088
L 2803 1088
L 2803 1254
L 2150 1254
L 2150 4122
z
M 1798 3703
L 1798 1254
L 256 1254
L 1798 3703
z
" transform="scale(0.015625)"/>
     </defs>
     <use xlink:href="#CMR17-34" transform="scale(0.996264)"/>
    </g>
   </g>
   <g id="text_47">
    <!-- $3$ -->
    <g style="fill: #17232e" transform="translate(238.790952 364.980682) scale(0.2 -0.2)">
     <use xlink:href="#CMR17-33" transform="scale(0.996264)"/>
    </g>
   </g>
   <g id="text_48">
    <!-- $2$ -->
    <g style="fill: #17232e" transform="translate(279.110952 364.980682) scale(0.2 -0.2)">
     <use xlink:href="#CMR17-32" transform="scale(0.996264)"/>
    </g>
   </g>
   <g id="text_49">
    <!-- $\widehat W^K$ -->
    <g style="fill: #17232e" transform="translate(449.564799 345.648958) scale(0.19 -0.19)">
     <use xlink:href="#CMEX10-63" transform="translate(3.008919 25.183364) scale(0.996264)"/>
     <use xlink:href="#CMMI12-57" transform="scale(0.996264)"/>
     <use xlink:href="#CMMI12-4b" transform="translate(105.644498 36.153639) scale(0.697382)"/>
    </g>
   </g>
   <g id="text_50">
    <!-- $0$ -->
    <g style="fill: #637b8c" transform="translate(379.190952 324.660682) scale(0.2 -0.2)">
     <use xlink:href="#CMR17-30" transform="scale(0.996264)"/>
    </g>
   </g>
   <g id="text_51">
    <!-- $2$ -->
    <g style="fill: #17232e" transform="translate(419.510952 324.660682) scale(0.2 -0.2)">
     <use xlink:href="#CMR17-32" transform="scale(0.996264)"/>
    </g>
   </g>
   <g id="text_52">
    <!-- $3$ -->
    <g style="fill: #17232e" transform="translate(379.190952 364.980682) scale(0.2 -0.2)">
     <use xlink:href="#CMR17-33" transform="scale(0.996264)"/>
    </g>
   </g>
   <g id="text_53">
    <!-- $0$ -->
    <g style="fill: #637b8c" transform="translate(419.510952 364.980682) scale(0.2 -0.2)">
     <use xlink:href="#CMR17-30" transform="scale(0.996264)"/>
    </g>
   </g>
   <g id="text_54">
    <!-- 50% removed -->
    <g style="fill: #53616c" transform="translate(358.599766 403.187187) scale(0.13 -0.13)">
     <use xlink:href="#DejaVuSans-35"/>
     <use xlink:href="#DejaVuSans-30" transform="translate(63.623047 0)"/>
     <use xlink:href="#DejaVuSans-25" transform="translate(127.246094 0)"/>
     <use xlink:href="#DejaVuSans-20" transform="translate(222.265625 0)"/>
     <use xlink:href="#DejaVuSans-72" transform="translate(254.052734 0)"/>
     <use xlink:href="#DejaVuSans-65" transform="translate(292.916016 0)"/>
     <use xlink:href="#DejaVuSans-6d" transform="translate(354.439453 0)"/>
     <use xlink:href="#DejaVuSans-6f" transform="translate(451.851562 0)"/>
     <use xlink:href="#DejaVuSans-76" transform="translate(513.033203 0)"/>
     <use xlink:href="#DejaVuSans-65" transform="translate(572.212891 0)"/>
     <use xlink:href="#DejaVuSans-64" transform="translate(633.736328 0)"/>
    </g>
   </g>
   <g id="text_55">
    <!-- Row-wise budget -->
    <g style="fill: #53616c" transform="translate(212.30625 403.63125) scale(0.12 -0.12)">
     <defs>
      <path id="DejaVuSans-52" d="M 2841 2188
Q 3044 2119 3236 1894
Q 3428 1669 3622 1275
L 4263 0
L 3584 0
L 2988 1197
Q 2756 1666 2539 1819
Q 2322 1972 1947 1972
L 1259 1972
L 1259 0
L 628 0
L 628 4666
L 2053 4666
Q 2853 4666 3247 4331
Q 3641 3997 3641 3322
Q 3641 2881 3436 2590
Q 3231 2300 2841 2188
z
M 1259 4147
L 1259 2491
L 2053 2491
Q 2509 2491 2742 2702
Q 2975 2913 2975 3322
Q 2975 3731 2742 3939
Q 2509 4147 2053 4147
L 1259 4147
z
" transform="scale(0.015625)"/>
      <path id="DejaVuSans-2d" d="M 313 2009
L 1997 2009
L 1997 1497
L 313 1497
L 313 2009
z
" transform="scale(0.015625)"/>
      <path id="DejaVuSans-62" d="M 3116 1747
Q 3116 2381 2855 2742
Q 2594 3103 2138 3103
Q 1681 3103 1420 2742
Q 1159 2381 1159 1747
Q 1159 1113 1420 752
Q 1681 391 2138 391
Q 2594 391 2855 752
Q 3116 1113 3116 1747
z
M 1159 2969
Q 1341 3281 1617 3432
Q 1894 3584 2278 3584
Q 2916 3584 3314 3078
Q 3713 2572 3713 1747
Q 3713 922 3314 415
Q 2916 -91 2278 -91
Q 1894 -91 1617 61
Q 1341 213 1159 525
L 1159 0
L 581 0
L 581 4863
L 1159 4863
L 1159 2969
z
" transform="scale(0.015625)"/>
     </defs>
     <use xlink:href="#DejaVuSans-52"/>
     <use xlink:href="#DejaVuSans-6f" transform="translate(64.982422 0)"/>
     <use xlink:href="#DejaVuSans-77" transform="translate(126.164062 0)"/>
     <use xlink:href="#DejaVuSans-2d" transform="translate(207.951172 0)"/>
     <use xlink:href="#DejaVuSans-77" transform="translate(244.035156 0)"/>
     <use xlink:href="#DejaVuSans-69" transform="translate(325.822266 0)"/>
     <use xlink:href="#DejaVuSans-73" transform="translate(353.605469 0)"/>
     <use xlink:href="#DejaVuSans-65" transform="translate(405.705078 0)"/>
     <use xlink:href="#DejaVuSans-20" transform="translate(467.228516 0)"/>
     <use xlink:href="#DejaVuSans-62" transform="translate(499.015625 0)"/>
     <use xlink:href="#DejaVuSans-75" transform="translate(562.492188 0)"/>
     <use xlink:href="#DejaVuSans-64" transform="translate(625.871094 0)"/>
     <use xlink:href="#DejaVuSans-67" transform="translate(689.347656 0)"/>
     <use xlink:href="#DejaVuSans-65" transform="translate(752.824219 0)"/>
     <use xlink:href="#DejaVuSans-74" transform="translate(814.347656 0)"/>
    </g>
   </g>
   <g id="text_56">
    <!-- Weights and activations -->
    <g style="fill: #17232e" transform="translate(556.112812 97.463125) scale(0.14 -0.14)">
     <use xlink:href="#DejaVuSans-57"/>
     <use xlink:href="#DejaVuSans-65" transform="translate(93.001953 0)"/>
     <use xlink:href="#DejaVuSans-69" transform="translate(154.525391 0)"/>
     <use xlink:href="#DejaVuSans-67" transform="translate(182.308594 0)"/>
     <use xlink:href="#DejaVuSans-68" transform="translate(245.785156 0)"/>
     <use xlink:href="#DejaVuSans-74" transform="translate(309.164062 0)"/>
     <use xlink:href="#DejaVuSans-73" transform="translate(348.373047 0)"/>
     <use xlink:href="#DejaVuSans-20" transform="translate(400.472656 0)"/>
     <use xlink:href="#DejaVuSans-61" transform="translate(432.259766 0)"/>
     <use xlink:href="#DejaVuSans-6e" transform="translate(493.539062 0)"/>
     <use xlink:href="#DejaVuSans-64" transform="translate(556.917969 0)"/>
     <use xlink:href="#DejaVuSans-20" transform="translate(620.394531 0)"/>
     <use xlink:href="#DejaVuSans-61" transform="translate(652.181641 0)"/>
     <use xlink:href="#DejaVuSans-63" transform="translate(713.460938 0)"/>
     <use xlink:href="#DejaVuSans-74" transform="translate(768.441406 0)"/>
     <use xlink:href="#DejaVuSans-69" transform="translate(807.650391 0)"/>
     <use xlink:href="#DejaVuSans-76" transform="translate(835.433594 0)"/>
     <use xlink:href="#DejaVuSans-61" transform="translate(894.613281 0)"/>
     <use xlink:href="#DejaVuSans-74" transform="translate(955.892578 0)"/>
     <use xlink:href="#DejaVuSans-69" transform="translate(995.101562 0)"/>
     <use xlink:href="#DejaVuSans-6f" transform="translate(1022.884766 0)"/>
     <use xlink:href="#DejaVuSans-6e" transform="translate(1084.066406 0)"/>
     <use xlink:href="#DejaVuSans-73" transform="translate(1147.445312 0)"/>
    </g>
   </g>
   <g id="text_57">
    <!-- Pruning scores -->
    <g style="fill: #17232e" transform="translate(778.089531 97.463125) scale(0.14 -0.14)">
     <use xlink:href="#DejaVuSans-50"/>
     <use xlink:href="#DejaVuSans-72" transform="translate(58.552734 0)"/>
     <use xlink:href="#DejaVuSans-75" transform="translate(99.666016 0)"/>
     <use xlink:href="#DejaVuSans-6e" transform="translate(163.044922 0)"/>
     <use xlink:href="#DejaVuSans-69" transform="translate(226.423828 0)"/>
     <use xlink:href="#DejaVuSans-6e" transform="translate(254.207031 0)"/>
     <use xlink:href="#DejaVuSans-67" transform="translate(317.585938 0)"/>
     <use xlink:href="#DejaVuSans-20" transform="translate(381.0625 0)"/>
     <use xlink:href="#DejaVuSans-73" transform="translate(412.849609 0)"/>
     <use xlink:href="#DejaVuSans-63" transform="translate(464.949219 0)"/>
     <use xlink:href="#DejaVuSans-6f" transform="translate(519.929688 0)"/>
     <use xlink:href="#DejaVuSans-72" transform="translate(581.111328 0)"/>
     <use xlink:href="#DejaVuSans-65" transform="translate(619.974609 0)"/>
     <use xlink:href="#DejaVuSans-73" transform="translate(681.498047 0)"/>
    </g>
   </g>
   <g id="text_58">
    <!-- Pruned weights -->
    <g style="fill: #17232e" transform="translate(933.768281 97.463125) scale(0.14 -0.14)">
     <use xlink:href="#DejaVuSans-50"/>
     <use xlink:href="#DejaVuSans-72" transform="translate(58.552734 0)"/>
     <use xlink:href="#DejaVuSans-75" transform="translate(99.666016 0)"/>
     <use xlink:href="#DejaVuSans-6e" transform="translate(163.044922 0)"/>
     <use xlink:href="#DejaVuSans-65" transform="translate(226.423828 0)"/>
     <use xlink:href="#DejaVuSans-64" transform="translate(287.947266 0)"/>
     <use xlink:href="#DejaVuSans-20" transform="translate(351.423828 0)"/>
     <use xlink:href="#DejaVuSans-77" transform="translate(383.210938 0)"/>
     <use xlink:href="#DejaVuSans-65" transform="translate(464.998047 0)"/>
     <use xlink:href="#DejaVuSans-69" transform="translate(526.521484 0)"/>
     <use xlink:href="#DejaVuSans-67" transform="translate(554.304688 0)"/>
     <use xlink:href="#DejaVuSans-68" transform="translate(617.78125 0)"/>
     <use xlink:href="#DejaVuSans-74" transform="translate(681.160156 0)"/>
     <use xlink:href="#DejaVuSans-73" transform="translate(720.369141 0)"/>
    </g>
   </g>
   <g id="text_59">
    <!-- $W^Q$ -->
    <g style="fill: #17232e" transform="translate(541.30735 180.660682) scale(0.2 -0.2)">
     <use xlink:href="#CMMI12-57" transform="scale(0.996264)"/>
     <use xlink:href="#CMMI12-51" transform="translate(105.644498 36.153639) scale(0.697382)"/>
    </g>
   </g>
   <g id="text_60">
    <!-- $-1$ -->
    <g style="fill: #17232e" transform="translate(587.442209 160.500682) scale(0.2 -0.2)">
     <use xlink:href="#CMSY10-0" transform="scale(0.996264)"/>
     <use xlink:href="#CMR17-31" transform="translate(77.487468 0) scale(0.996264)"/>
    </g>
   </g>
   <g id="text_61">
    <!-- $1$ -->
    <g style="fill: #17232e" transform="translate(635.510952 160.500682) scale(0.2 -0.2)">
     <use xlink:href="#CMR17-31" transform="scale(0.996264)"/>
    </g>
   </g>
   <g id="text_62">
    <!-- $1$ -->
    <g style="fill: #17232e" transform="translate(595.190952 200.820682) scale(0.2 -0.2)">
     <use xlink:href="#CMR17-31" transform="scale(0.996264)"/>
    </g>
   </g>
   <g id="text_63">
    <!-- $1$ -->
    <g style="fill: #17232e" transform="translate(635.510952 200.820682) scale(0.2 -0.2)">
     <use xlink:href="#CMR17-31" transform="scale(0.996264)"/>
    </g>
   </g>
   <g id="text_64">
    <!-- $1$ -->
    <g style="fill: #17232e" transform="translate(595.190952 253.380682) scale(0.2 -0.2)">
     <use xlink:href="#CMR17-31" transform="scale(0.996264)"/>
    </g>
   </g>
   <g id="text_65">
    <!-- $2$ -->
    <g style="fill: #17232e" transform="translate(635.510952 253.380682) scale(0.2 -0.2)">
     <use xlink:href="#CMR17-32" transform="scale(0.996264)"/>
    </g>
   </g>
   <g id="text_66">
    <!-- $\lVert X_{j:}\rVert_2$ -->
    <g style="fill: #9f3518" transform="translate(527.655701 252.097256) scale(0.16 -0.16)">
     <use xlink:href="#CMSY10-6b" transform="scale(0.996264)"/>
     <use xlink:href="#CMMI12-58" transform="translate(49.813383 0) scale(0.996264)"/>
     <use xlink:href="#CMMI12-6a" transform="translate(130.773607 -14.943915) scale(0.697382)"/>
     <use xlink:href="#CMR17-3a" transform="translate(162.947191 -14.943915) scale(0.697382)"/>
     <use xlink:href="#CMSY10-6b" transform="translate(180.854982 0) scale(0.996264)"/>
     <use xlink:href="#CMR17-32" transform="translate(230.668365 -14.943915) scale(0.697382)"/>
    </g>
   </g>
   <g id="text_67">
    <!-- $\times$ -->
    <g style="fill: #9f3518" transform="translate(613.721002 228.625056) scale(0.16 -0.16)">
     <use xlink:href="#CMSY10-2" transform="scale(0.996264)"/>
    </g>
   </g>
   <g id="text_68">
    <!-- $\lVert K_{i:}\rVert_2$ -->
    <g style="fill: #176b62" transform="translate(688.800057 122.065056) scale(0.16 -0.16)">
     <use xlink:href="#CMSY10-6b" transform="scale(0.996264)"/>
     <use xlink:href="#CMMI12-4b" transform="translate(49.813383 0) scale(0.996264)"/>
     <use xlink:href="#CMMI12-69" transform="translate(132.805994 -14.943915) scale(0.697382)"/>
     <use xlink:href="#CMR17-3a" transform="translate(156.100901 -14.943915) scale(0.697382)"/>
     <use xlink:href="#CMSY10-6b" transform="translate(174.008692 0) scale(0.996264)"/>
     <use xlink:href="#CMR17-32" transform="translate(223.822075 -14.943915) scale(0.697382)"/>
    </g>
   </g>
   <g id="text_69">
    <!-- $2$ -->
    <g style="fill: #17232e" transform="translate(705.350952 160.500682) scale(0.2 -0.2)">
     <use xlink:href="#CMR17-32" transform="scale(0.996264)"/>
    </g>
   </g>
   <g id="text_70">
    <!-- $1$ -->
    <g style="fill: #17232e" transform="translate(705.350952 200.820682) scale(0.2 -0.2)">
     <use xlink:href="#CMR17-31" transform="scale(0.996264)"/>
    </g>
   </g>
   <g id="text_71">
    <!-- $\times$ -->
    <g style="fill: #176b62" transform="translate(669.826129 180.162618) scale(0.18 -0.18)">
     <use xlink:href="#CMSY10-2" transform="scale(0.996264)"/>
    </g>
   </g>
   <g id="text_72">
    <!-- $2$ -->
    <g style="fill: #17232e" transform="translate(804.710952 160.500682) scale(0.2 -0.2)">
     <use xlink:href="#CMR17-32" transform="scale(0.996264)"/>
    </g>
   </g>
   <g id="text_73">
    <!-- $4$ -->
    <g style="fill: #17232e" transform="translate(845.030952 160.500682) scale(0.2 -0.2)">
     <use xlink:href="#CMR17-34" transform="scale(0.996264)"/>
    </g>
   </g>
   <g id="text_74">
    <!-- $1$ -->
    <g style="fill: #17232e" transform="translate(804.710952 200.820682) scale(0.2 -0.2)">
     <use xlink:href="#CMR17-31" transform="scale(0.996264)"/>
    </g>
   </g>
   <g id="text_75">
    <!-- $2$ -->
    <g style="fill: #17232e" transform="translate(845.030952 200.820682) scale(0.2 -0.2)">
     <use xlink:href="#CMR17-32" transform="scale(0.996264)"/>
    </g>
   </g>
   <g id="text_76">
    <!-- $\widehat W^Q$ -->
    <g style="fill: #17232e" transform="translate(1033.865991 181.488958) scale(0.19 -0.19)">
     <use xlink:href="#CMEX10-63" transform="translate(3.008919 25.183364) scale(0.996264)"/>
     <use xlink:href="#CMMI12-57" transform="scale(0.996264)"/>
     <use xlink:href="#CMMI12-51" transform="translate(105.644498 36.153639) scale(0.697382)"/>
    </g>
   </g>
   <g id="text_77">
    <!-- $0$ -->
    <g style="fill: #637b8c" transform="translate(963.110952 160.500682) scale(0.2 -0.2)">
     <use xlink:href="#CMR17-30" transform="scale(0.996264)"/>
    </g>
   </g>
   <g id="text_78">
    <!-- $1$ -->
    <g style="fill: #17232e" transform="translate(1003.430952 160.500682) scale(0.2 -0.2)">
     <use xlink:href="#CMR17-31" transform="scale(0.996264)"/>
    </g>
   </g>
   <g id="text_79">
    <!-- $0$ -->
    <g style="fill: #637b8c" transform="translate(963.110952 200.820682) scale(0.2 -0.2)">
     <use xlink:href="#CMR17-30" transform="scale(0.996264)"/>
    </g>
   </g>
   <g id="text_80">
    <!-- $0$ -->
    <g style="fill: #637b8c" transform="translate(1003.430952 200.820682) scale(0.2 -0.2)">
     <use xlink:href="#CMR17-30" transform="scale(0.996264)"/>
    </g>
   </g>
   <g id="text_81">
    <!-- 75% removed -->
    <g style="fill: #16756f" transform="translate(942.519766 239.027187) scale(0.13 -0.13)">
     <defs>
      <path id="DejaVuSans-37" d="M 525 4666
L 3525 4666
L 3525 4397
L 1831 0
L 1172 0
L 2766 4134
L 525 4134
L 525 4666
z
" transform="scale(0.015625)"/>
     </defs>
     <use xlink:href="#DejaVuSans-37"/>
     <use xlink:href="#DejaVuSans-35" transform="translate(63.623047 0)"/>
     <use xlink:href="#DejaVuSans-25" transform="translate(127.246094 0)"/>
     <use xlink:href="#DejaVuSans-20" transform="translate(222.265625 0)"/>
     <use xlink:href="#DejaVuSans-72" transform="translate(254.052734 0)"/>
     <use xlink:href="#DejaVuSans-65" transform="translate(292.916016 0)"/>
     <use xlink:href="#DejaVuSans-6d" transform="translate(354.439453 0)"/>
     <use xlink:href="#DejaVuSans-6f" transform="translate(451.851562 0)"/>
     <use xlink:href="#DejaVuSans-76" transform="translate(513.033203 0)"/>
     <use xlink:href="#DejaVuSans-65" transform="translate(572.212891 0)"/>
     <use xlink:href="#DejaVuSans-64" transform="translate(633.736328 0)"/>
    </g>
   </g>
   <g id="text_82">
    <!-- $W^K$ -->
    <g style="fill: #17232e" transform="translate(540.906099 344.820682) scale(0.2 -0.2)">
     <use xlink:href="#CMMI12-57" transform="scale(0.996264)"/>
     <use xlink:href="#CMMI12-4b" transform="translate(105.644498 36.153639) scale(0.697382)"/>
    </g>
   </g>
   <g id="text_83">
    <!-- $-2$ -->
    <g style="fill: #17232e" transform="translate(587.442209 324.660682) scale(0.2 -0.2)">
     <use xlink:href="#CMSY10-0" transform="scale(0.996264)"/>
     <use xlink:href="#CMR17-32" transform="translate(77.487468 0) scale(0.996264)"/>
    </g>
   </g>
   <g id="text_84">
    <!-- $2$ -->
    <g style="fill: #17232e" transform="translate(635.510952 324.660682) scale(0.2 -0.2)">
     <use xlink:href="#CMR17-32" transform="scale(0.996264)"/>
    </g>
   </g>
   <g id="text_85">
    <!-- $3$ -->
    <g style="fill: #17232e" transform="translate(595.190952 364.980682) scale(0.2 -0.2)">
     <use xlink:href="#CMR17-33" transform="scale(0.996264)"/>
    </g>
   </g>
   <g id="text_86">
    <!-- $-1$ -->
    <g style="fill: #17232e" transform="translate(627.762209 364.980682) scale(0.2 -0.2)">
     <use xlink:href="#CMSY10-0" transform="scale(0.996264)"/>
     <use xlink:href="#CMR17-31" transform="translate(77.487468 0) scale(0.996264)"/>
    </g>
   </g>
   <g id="text_87">
    <!-- $1$ -->
    <g style="fill: #17232e" transform="translate(595.190952 417.540682) scale(0.2 -0.2)">
     <use xlink:href="#CMR17-31" transform="scale(0.996264)"/>
    </g>
   </g>
   <g id="text_88">
    <!-- $2$ -->
    <g style="fill: #17232e" transform="translate(635.510952 417.540682) scale(0.2 -0.2)">
     <use xlink:href="#CMR17-32" transform="scale(0.996264)"/>
    </g>
   </g>
   <g id="text_89">
    <!-- $\lVert X_{j:}\rVert_2$ -->
    <g style="fill: #9f3518" transform="translate(527.655701 416.257256) scale(0.16 -0.16)">
     <use xlink:href="#CMSY10-6b" transform="scale(0.996264)"/>
     <use xlink:href="#CMMI12-58" transform="translate(49.813383 0) scale(0.996264)"/>
     <use xlink:href="#CMMI12-6a" transform="translate(130.773607 -14.943915) scale(0.697382)"/>
     <use xlink:href="#CMR17-3a" transform="translate(162.947191 -14.943915) scale(0.697382)"/>
     <use xlink:href="#CMSY10-6b" transform="translate(180.854982 0) scale(0.996264)"/>
     <use xlink:href="#CMR17-32" transform="translate(230.668365 -14.943915) scale(0.697382)"/>
    </g>
   </g>
   <g id="text_90">
    <!-- $\times$ -->
    <g style="fill: #9f3518" transform="translate(613.721002 392.785056) scale(0.16 -0.16)">
     <use xlink:href="#CMSY10-2" transform="scale(0.996264)"/>
    </g>
   </g>
   <g id="text_91">
    <!-- $\lVert Q_{i:}\rVert_2$ -->
    <g style="fill: #176b62" transform="translate(689.258634 286.225056) scale(0.16 -0.16)">
     <use xlink:href="#CMSY10-6b" transform="scale(0.996264)"/>
     <use xlink:href="#CMMI12-51" transform="translate(49.813383 0) scale(0.996264)"/>
     <use xlink:href="#CMMI12-69" transform="translate(127.073782 -14.943915) scale(0.697382)"/>
     <use xlink:href="#CMR17-3a" transform="translate(150.368689 -14.943915) scale(0.697382)"/>
     <use xlink:href="#CMSY10-6b" transform="translate(168.27648 0) scale(0.996264)"/>
     <use xlink:href="#CMR17-32" transform="translate(218.089863 -14.943915) scale(0.697382)"/>
    </g>
   </g>
   <g id="text_92">
    <!-- $1$ -->
    <g style="fill: #17232e" transform="translate(705.350952 324.660682) scale(0.2 -0.2)">
     <use xlink:href="#CMR17-31" transform="scale(0.996264)"/>
    </g>
   </g>
   <g id="text_93">
    <!-- $3$ -->
    <g style="fill: #17232e" transform="translate(705.350952 364.980682) scale(0.2 -0.2)">
     <use xlink:href="#CMR17-33" transform="scale(0.996264)"/>
    </g>
   </g>
   <g id="text_94">
    <!-- $\times$ -->
    <g style="fill: #176b62" transform="translate(669.826129 344.322618) scale(0.18 -0.18)">
     <use xlink:href="#CMSY10-2" transform="scale(0.996264)"/>
    </g>
   </g>
   <g id="text_95">
    <!-- $2$ -->
    <g style="fill: #17232e" transform="translate(804.710952 324.660682) scale(0.2 -0.2)">
     <use xlink:href="#CMR17-32" transform="scale(0.996264)"/>
    </g>
   </g>
   <g id="text_96">
    <!-- $4$ -->
    <g style="fill: #17232e" transform="translate(845.030952 324.660682) scale(0.2 -0.2)">
     <use xlink:href="#CMR17-34" transform="scale(0.996264)"/>
    </g>
   </g>
   <g id="text_97">
    <!-- $9$ -->
    <g style="fill: #17232e" transform="translate(804.710952 364.980682) scale(0.2 -0.2)">
     <defs>
      <path id="CMR17-39" d="M 2253 1864
C 2253 464 1670 31 1190 31
C 1043 31 685 31 538 294
C 704 268 826 357 826 518
C 826 692 685 749 595 749
C 538 749 365 723 365 506
C 365 71 742 -128 1203 -128
C 1939 -128 2688 674 2688 2073
C 2688 3817 1971 4179 1485 4179
C 851 4179 243 3628 243 2778
C 243 1991 762 1408 1414 1408
C 1952 1408 2189 1903 2253 2112
L 2253 1864
z
M 1427 1510
C 1254 1510 1011 1542 813 1922
C 678 2169 678 2461 678 2771
C 678 3146 678 3405 858 3684
C 947 3817 1114 4032 1485 4032
C 2240 4032 2240 2885 2240 2632
C 2240 2182 2035 1510 1427 1510
z
" transform="scale(0.015625)"/>
     </defs>
     <use xlink:href="#CMR17-39" transform="scale(0.996264)"/>
    </g>
   </g>
   <g id="text_98">
    <!-- $6$ -->
    <g style="fill: #17232e" transform="translate(845.030952 364.980682) scale(0.2 -0.2)">
     <defs>
      <path id="CMR17-36" d="M 678 2176
C 678 3690 1395 4032 1811 4032
C 1946 4032 2272 4009 2400 3776
C 2298 3776 2106 3776 2106 3553
C 2106 3381 2246 3323 2336 3323
C 2394 3323 2566 3348 2566 3560
C 2566 3954 2246 4179 1805 4179
C 1043 4179 243 3390 243 1984
C 243 253 966 -128 1478 -128
C 2099 -128 2688 427 2688 1283
C 2688 2081 2170 2662 1517 2662
C 1126 2662 838 2407 678 1960
L 678 2176
z
M 1478 25
C 691 25 691 1200 691 1436
C 691 1896 909 2560 1504 2560
C 1613 2560 1926 2560 2138 2120
C 2253 1870 2253 1609 2253 1289
C 2253 944 2253 690 2118 434
C 1978 171 1773 25 1478 25
z
" transform="scale(0.015625)"/>
     </defs>
     <use xlink:href="#CMR17-36" transform="scale(0.996264)"/>
    </g>
   </g>
   <g id="text_99">
    <!-- $\widehat W^K$ -->
    <g style="fill: #17232e" transform="translate(1033.484799 345.648958) scale(0.19 -0.19)">
     <use xlink:href="#CMEX10-63" transform="translate(3.008919 25.183364) scale(0.996264)"/>
     <use xlink:href="#CMMI12-57" transform="scale(0.996264)"/>
     <use xlink:href="#CMMI12-4b" transform="translate(105.644498 36.153639) scale(0.697382)"/>
    </g>
   </g>
   <g id="text_100">
    <!-- $0$ -->
    <g style="fill: #637b8c" transform="translate(963.110952 324.660682) scale(0.2 -0.2)">
     <use xlink:href="#CMR17-30" transform="scale(0.996264)"/>
    </g>
   </g>
   <g id="text_101">
    <!-- $2$ -->
    <g style="fill: #17232e" transform="translate(1003.430952 324.660682) scale(0.2 -0.2)">
     <use xlink:href="#CMR17-32" transform="scale(0.996264)"/>
    </g>
   </g>
   <g id="text_102">
    <!-- $3$ -->
    <g style="fill: #17232e" transform="translate(963.110952 364.980682) scale(0.2 -0.2)">
     <use xlink:href="#CMR17-33" transform="scale(0.996264)"/>
    </g>
   </g>
   <g id="text_103">
    <!-- $-1$ -->
    <g style="fill: #17232e" transform="translate(995.682209 364.980682) scale(0.2 -0.2)">
     <use xlink:href="#CMSY10-0" transform="scale(0.996264)"/>
     <use xlink:href="#CMR17-31" transform="translate(77.487468 0) scale(0.996264)"/>
    </g>
   </g>
   <g id="text_104">
    <!-- 25% removed -->
    <g style="fill: #16756f" transform="translate(942.519766 403.187187) scale(0.13 -0.13)">
     <defs>
      <path id="DejaVuSans-32" d="M 1228 531
L 3431 531
L 3431 0
L 469 0
L 469 531
Q 828 903 1448 1529
Q 2069 2156 2228 2338
Q 2531 2678 2651 2914
Q 2772 3150 2772 3378
Q 2772 3750 2511 3984
Q 2250 4219 1831 4219
Q 1534 4219 1204 4116
Q 875 4013 500 3803
L 500 4441
Q 881 4594 1212 4672
Q 1544 4750 1819 4750
Q 2544 4750 2975 4387
Q 3406 4025 3406 3419
Q 3406 3131 3298 2873
Q 3191 2616 2906 2266
Q 2828 2175 2409 1742
Q 1991 1309 1228 531
z
" transform="scale(0.015625)"/>
     </defs>
     <use xlink:href="#DejaVuSans-32"/>
     <use xlink:href="#DejaVuSans-35" transform="translate(63.623047 0)"/>
     <use xlink:href="#DejaVuSans-25" transform="translate(127.246094 0)"/>
     <use xlink:href="#DejaVuSans-20" transform="translate(222.265625 0)"/>
     <use xlink:href="#DejaVuSans-72" transform="translate(254.052734 0)"/>
     <use xlink:href="#DejaVuSans-65" transform="translate(292.916016 0)"/>
     <use xlink:href="#DejaVuSans-6d" transform="translate(354.439453 0)"/>
     <use xlink:href="#DejaVuSans-6f" transform="translate(451.851562 0)"/>
     <use xlink:href="#DejaVuSans-76" transform="translate(513.033203 0)"/>
     <use xlink:href="#DejaVuSans-65" transform="translate(572.212891 0)"/>
     <use xlink:href="#DejaVuSans-64" transform="translate(633.736328 0)"/>
    </g>
   </g>
   <g id="text_105">
    <!-- Shared QK budget -->
    <g style="fill: #16756f" transform="translate(774.57375 403.63125) scale(0.12 -0.12)">
     <defs>
      <path id="DejaVuSans-53" d="M 3425 4513
L 3425 3897
Q 3066 4069 2747 4153
Q 2428 4238 2131 4238
Q 1616 4238 1336 4038
Q 1056 3838 1056 3469
Q 1056 3159 1242 3001
Q 1428 2844 1947 2747
L 2328 2669
Q 3034 2534 3370 2195
Q 3706 1856 3706 1288
Q 3706 609 3251 259
Q 2797 -91 1919 -91
Q 1588 -91 1214 -16
Q 841 59 441 206
L 441 856
Q 825 641 1194 531
Q 1563 422 1919 422
Q 2459 422 2753 634
Q 3047 847 3047 1241
Q 3047 1584 2836 1778
Q 2625 1972 2144 2069
L 1759 2144
Q 1053 2284 737 2584
Q 422 2884 422 3419
Q 422 4038 858 4394
Q 1294 4750 2059 4750
Q 2388 4750 2728 4690
Q 3069 4631 3425 4513
z
" transform="scale(0.015625)"/>
      <path id="DejaVuSans-51" d="M 2522 4238
Q 1834 4238 1429 3725
Q 1025 3213 1025 2328
Q 1025 1447 1429 934
Q 1834 422 2522 422
Q 3209 422 3611 934
Q 4013 1447 4013 2328
Q 4013 3213 3611 3725
Q 3209 4238 2522 4238
z
M 3406 84
L 4238 -825
L 3475 -825
L 2784 -78
Q 2681 -84 2626 -87
Q 2572 -91 2522 -91
Q 1538 -91 948 567
Q 359 1225 359 2328
Q 359 3434 948 4092
Q 1538 4750 2522 4750
Q 3503 4750 4090 4092
Q 4678 3434 4678 2328
Q 4678 1516 4351 937
Q 4025 359 3406 84
z
" transform="scale(0.015625)"/>
      <path id="DejaVuSans-4b" d="M 628 4666
L 1259 4666
L 1259 2694
L 3353 4666
L 4166 4666
L 1850 2491
L 4331 0
L 3500 0
L 1259 2247
L 1259 0
L 628 0
L 628 4666
z
" transform="scale(0.015625)"/>
     </defs>
     <use xlink:href="#DejaVuSans-53"/>
     <use xlink:href="#DejaVuSans-68" transform="translate(63.476562 0)"/>
     <use xlink:href="#DejaVuSans-61" transform="translate(126.855469 0)"/>
     <use xlink:href="#DejaVuSans-72" transform="translate(188.134766 0)"/>
     <use xlink:href="#DejaVuSans-65" transform="translate(226.998047 0)"/>
     <use xlink:href="#DejaVuSans-64" transform="translate(288.521484 0)"/>
     <use xlink:href="#DejaVuSans-20" transform="translate(351.998047 0)"/>
     <use xlink:href="#DejaVuSans-51" transform="translate(383.785156 0)"/>
     <use xlink:href="#DejaVuSans-4b" transform="translate(462.496094 0)"/>
     <use xlink:href="#DejaVuSans-20" transform="translate(528.072266 0)"/>
     <use xlink:href="#DejaVuSans-62" transform="translate(559.859375 0)"/>
     <use xlink:href="#DejaVuSans-75" transform="translate(623.335938 0)"/>
     <use xlink:href="#DejaVuSans-64" transform="translate(686.714844 0)"/>
     <use xlink:href="#DejaVuSans-67" transform="translate(750.191406 0)"/>
     <use xlink:href="#DejaVuSans-65" transform="translate(813.667969 0)"/>
     <use xlink:href="#DejaVuSans-74" transform="translate(875.191406 0)"/>
    </g>
   </g>
  </g>
 </g>
 <defs>
  <clipPath id="pe584904efb">
   <rect x="0" y="0" width="1080" height="439.2"/>
  </clipPath>
 </defs>
</svg>
